<?xml version="1.0" encoding="UTF-8" standalone="no"?>
<!-- Created with Inkscape (http://www.inkscape.org/) -->

<svg
   xmlns:dc="http://purl.org/dc/elements/1.1/"
   xmlns:cc="http://creativecommons.org/ns#"
   xmlns:rdf="http://www.w3.org/1999/02/22-rdf-syntax-ns#"
   xmlns:svg="http://www.w3.org/2000/svg"
   xmlns="http://www.w3.org/2000/svg"
   xmlns:sodipodi="http://sodipodi.sourceforge.net/DTD/sodipodi-0.dtd"
   xmlns:inkscape="http://www.inkscape.org/namespaces/inkscape"
   width="990"
   height="765"
   id="svg2"
   version="1.1"
   inkscape:version="0.48.2 r9819"
   sodipodi:docname="gameboard.svg">
  <defs
     id="defs4" />
  <sodipodi:namedview
     id="base"
     pagecolor="#ffffff"
     bordercolor="#666666"
     borderopacity="1.0"
     inkscape:pageopacity="0.0"
     inkscape:pageshadow="2"
     inkscape:zoom="0.58622813"
     inkscape:cx="435.6741"
     inkscape:cy="410.61828"
     inkscape:document-units="in"
     inkscape:current-layer="layer1"
     showgrid="true"
     units="in"
     showguides="true"
     inkscape:guide-bbox="true"
     inkscape:window-width="1383"
     inkscape:window-height="856"
     inkscape:window-x="95"
     inkscape:window-y="22"
     inkscape:window-maximized="0"
     inkscape:snap-global="false">
    <inkscape:grid
       type="xygrid"
       id="grid2985"
       empspacing="4"
       visible="true"
       enabled="true"
       snapvisiblegridlinesonly="true"
       units="in"
       spacingx="0.25in"
       spacingy="0.25in" />
  </sodipodi:namedview>
  <metadata
     id="metadata7">
    <rdf:RDF>
      <cc:Work
         rdf:about="">
        <dc:format>image/svg+xml</dc:format>
        <dc:type
           rdf:resource="http://purl.org/dc/dcmitype/StillImage" />
        <dc:title />
      </cc:Work>
    </rdf:RDF>
  </metadata>
  <g
     inkscape:label="Layer 1"
     inkscape:groupmode="layer"
     id="layer1"
     transform="translate(0,-287.362)">
    <path
       sodipodi:type="spiral"
       style="fill:none;stroke:#333333;stroke-width:14.39999962;stroke-linecap:butt;stroke-linejoin:miter;stroke-miterlimit:4;stroke-opacity:1;stroke-dasharray:none"
       id="path7407"
       sodipodi:cx="411.53613"
       sodipodi:cy="305.38058"
       sodipodi:expansion="0.73000002"
       sodipodi:revolution="2.8793344"
       sodipodi:radius="337.16086"
       sodipodi:argument="-18.695198"
       sodipodi:t0="0"
       d="M 411.53613,305.38058 C 449.30938,311.25793 427.44883,354.2402 402.82945,361.33774 358.85657,374.0147 321.7297,331.51444 318.72341,290.93934 314.0844,228.3276 371.42471,180.55816 430.95176,180.59796 509.90113,180.65075 568.4288,253.13449 565.47894,329.33341 561.8371,423.40689 474.90401,492.21212 383.34575,486.55785 275.00645,479.86725 196.38286,379.17322 204.56679,273.17707 213.9818,151.23625 327.84551,63.188668 447.57528,73.759988 582.5787,85.679867 679.71368,212.21192 666.87169,345.10967 652.60756,492.72474 513.83596,598.6571 368.23992,583.64178 208.39909,567.15738 93.922283,416.51763 111.02843,258.62291 129.63354,86.892293 291.81584,-35.905856 461.66288,-16.779901 551.65098,-6.6466159 634.76714,41.625365 689.08039,113.94748"
       transform="matrix(-0.70710678,0.70710679,-0.70710679,-0.70710678,1005.9073,583.96849)" />
    <path
       transform="matrix(-0.20331246,-0.75877361,-0.75877361,0.20331246,965.17434,721.17896)"
       d="M 225,157.5 A 22.5,22.5 0 1 1 180,157.5 22.5,22.5 0 1 1 225,157.5 z"
       sodipodi:ry="22.5"
       sodipodi:rx="22.5"
       sodipodi:cy="157.5"
       sodipodi:cx="202.5"
       id="path3819"
       style="fill:#ffffff;stroke:#000000;stroke-width:9;stroke-miterlimit:4;stroke-dasharray:none"
       sodipodi:type="arc" />
    <path
       sodipodi:type="arc"
       style="fill:#ffffff;stroke:#000000;stroke-width:9;stroke-miterlimit:4;stroke-dasharray:none"
       id="path3821"
       sodipodi:cx="202.5"
       sodipodi:cy="157.5"
       sodipodi:rx="22.5"
       sodipodi:ry="22.5"
       d="M 225,157.5 A 22.5,22.5 0 1 1 180,157.5 22.5,22.5 0 1 1 225,157.5 z"
       transform="matrix(-0.20331246,-0.75877361,-0.75877361,0.20331246,414.7964,870.55949)" />
    <path
       sodipodi:type="arc"
       style="fill:#ffffff;stroke:#000000;stroke-width:9;stroke-miterlimit:4;stroke-dasharray:none"
       id="path3823"
       sodipodi:cx="202.5"
       sodipodi:cy="157.5"
       sodipodi:rx="22.5"
       sodipodi:ry="22.5"
       d="M 225,157.5 A 22.5,22.5 0 1 1 180,157.5 22.5,22.5 0 1 1 225,157.5 z"
       transform="matrix(-0.55546052,-0.55546052,-0.55546052,0.55546052,931.12087,490.73779)" />
    <path
       transform="matrix(-0.20331242,0.75877361,0.75877361,0.20331242,156.98175,414.24097)"
       d="M 225,157.5 A 22.5,22.5 0 1 1 180,157.5 22.5,22.5 0 1 1 225,157.5 z"
       sodipodi:ry="22.5"
       sodipodi:rx="22.5"
       sodipodi:cy="157.5"
       sodipodi:cx="202.5"
       id="path3827"
       style="fill:#ffffff;stroke:#000000;stroke-width:9;stroke-miterlimit:4;stroke-dasharray:none"
       sodipodi:type="arc" />
    <path
       sodipodi:type="arc"
       style="fill:#ffffff;stroke:#000000;stroke-width:9;stroke-miterlimit:4;stroke-dasharray:none"
       id="path3829"
       sodipodi:cx="202.5"
       sodipodi:cy="157.5"
       sodipodi:rx="22.5"
       sodipodi:ry="22.5"
       d="M 225,157.5 A 22.5,22.5 0 1 1 180,157.5 22.5,22.5 0 1 1 225,157.5 z"
       transform="matrix(-0.20331242,0.75877361,0.75877361,0.20331242,723.53943,565.06045)" />
    <path
       transform="matrix(-0.75877361,-0.20331242,-0.20331242,0.75877361,784.34821,301.99583)"
       d="M 225,157.5 A 22.5,22.5 0 1 1 180,157.5 22.5,22.5 0 1 1 225,157.5 z"
       sodipodi:ry="22.5"
       sodipodi:rx="22.5"
       sodipodi:cy="157.5"
       sodipodi:cx="202.5"
       id="path3835"
       style="fill:#ffffff;stroke:#000000;stroke-width:9;stroke-miterlimit:4;stroke-dasharray:none"
       sodipodi:type="arc" />
    <path
       sodipodi:type="arc"
       style="fill:#ffffff;stroke:#000000;stroke-width:9;stroke-miterlimit:4;stroke-dasharray:none"
       id="path3837"
       sodipodi:cx="202.5"
       sodipodi:cy="157.5"
       sodipodi:rx="22.5"
       sodipodi:ry="22.5"
       d="M 225,157.5 A 22.5,22.5 0 1 1 180,157.5 22.5,22.5 0 1 1 225,157.5 z"
       transform="matrix(-0.75877361,-0.20331242,-0.20331242,0.75877361,621.21681,910.80572)" />
    <path
       transform="matrix(0.55546087,0.55546086,0.55546086,-0.55546087,382.24253,589.69304)"
       d="M 225,157.5 A 22.5,22.5 0 1 1 180,157.5 22.5,22.5 0 1 1 225,157.5 z"
       sodipodi:ry="22.5"
       sodipodi:rx="22.5"
       sodipodi:cy="157.5"
       sodipodi:cx="202.5"
       id="path3861"
       style="fill:#ffffff;stroke:#000000;stroke-width:9;stroke-miterlimit:4;stroke-dasharray:none"
       sodipodi:type="arc" />
    <text
       xml:space="preserve"
       style="font-size:64px;font-style:normal;font-variant:normal;font-weight:normal;font-stretch:normal;line-height:125%;letter-spacing:0px;word-spacing:0px;fill:#000000;fill-opacity:1;stroke:none;font-family:Webdings;-inkscape-font-specification:Webdings"
       x="-1081.509"
       y="21.774929"
       id="text3896"
       sodipodi:linespacing="125%"
       transform="matrix(0,-1,1,0,0,0)"><tspan
         sodipodi:role="line"
         id="tspan3898"
         x="-1081.509"
         y="21.774929" /><tspan
         sodipodi:role="line"
         id="tspan3900"
         x="-1081.509"
         y="101.77494" /></text>
    <text
       xml:space="preserve"
       style="font-size:72px;font-style:normal;font-variant:normal;font-weight:normal;font-stretch:normal;line-height:125%;letter-spacing:0px;word-spacing:0px;fill:#000000;fill-opacity:1;stroke:none;font-family:Webdings;-inkscape-font-specification:Webdings"
       x="-1309.3754"
       y="736.9021"
       id="text3912"
       sodipodi:linespacing="125%"
       transform="matrix(0,-1,1,0,0,0)"><tspan
         sodipodi:role="line"
         id="tspan3914"
         x="-1309.3754"
         y="736.9021" /></text>
    <path
       inkscape:connector-curvature="0"
       id="path4019"
       style="font-size:72px;font-style:normal;font-variant:normal;font-weight:normal;font-stretch:normal;line-height:125%;letter-spacing:0px;word-spacing:0px;fill:#000000;fill-opacity:1;stroke:none;font-family:Wingdings;-inkscape-font-specification:Wingdings"
       d="M 843.01761,914.79614 864.82932,904.64218 862.78404,928.61763 886.01489,934.84714 869.00573,951.86708 882.7995,971.63858 858.84015,973.74679 856.65142,997.68637 836.95823,983.87968 819.94349,1000.9061 813.65017,977.63764 789.6937,979.74478 799.83889,957.9364 780.14005,944.13579 801.97404,933.91007 795.75276,910.65949 818.98954,916.8839 829.20241,895.0965 843.01761,914.79614 M 842.05462,918.38677 C 833.65211,916.13597 825.70152,917.17517 818.20394,921.50359 810.64579,925.86741 805.73868,932.25238 803.48767,940.65352 801.23654,949.05471 802.30018,957.01081 806.6752,964.52399 810.99037,972.07215 817.35257,976.96925 825.7546,979.22004 834.15593,981.47174 842.13909,980.41213 849.69251,976.05386 857.19536,971.72063 862.06771,965.35797 864.32111,956.95356 866.57221,948.55153 865.51506,940.57135 861.15423,933.01057 856.77372,925.50358 850.41016,920.62507 842.05462,918.38677" />
    <path
       inkscape:connector-curvature="0"
       id="path4021"
       style="font-size:72px;font-style:normal;font-variant:normal;font-weight:normal;font-stretch:normal;line-height:125%;letter-spacing:0px;word-spacing:0px;fill:#000000;fill-opacity:1;stroke:none;font-family:Wingdings;-inkscape-font-specification:Wingdings"
       d="M 1126.8397,1320.1325 C 1131.6206,1319.0074 1135.4292,1317.7301 1138.265,1316.3004 1141.1012,1314.8707 1144.1712,1312.6908 1147.4762,1309.7615 L 1148.882,1308.4956 C 1153.1479,1304.6753 1157.4136,1302.7653 1161.6793,1302.7653 1166.3902,1302.7653 1170.4331,1304.4762 1173.808,1307.8977 1177.1831,1311.2966 1178.8706,1315.3748 1178.8705,1320.1324 1178.8708,1324.8669 1177.183,1328.9446 1173.8083,1332.3667 1170.4333,1335.7652 1166.3902,1337.4643 1161.6793,1337.4644 1157.4135,1337.464 1153.1481,1335.5542 1148.8825,1331.734 L 1147.4761,1330.4684 C 1144.1712,1327.5385 1141.1013,1325.359 1138.2651,1323.9289 1135.4294,1322.4998 1131.6207,1321.2339 1126.8397,1320.1325" />
    <path
       inkscape:connector-curvature="0"
       id="path4023"
       style="font-size:72px;font-style:normal;font-variant:normal;font-weight:normal;font-stretch:normal;line-height:125%;letter-spacing:0px;word-spacing:0px;fill:#000000;fill-opacity:1;stroke:none;font-family:Wingdings;-inkscape-font-specification:Wingdings"
       d="M 166.77673,441.0205 176.91921,430.87877 163.03324,427.09157 164.20822,422.69486 180.66241,427.13527 196.20188,411.59496 174.95972,405.9361 162.94613,417.95008 159.68114,414.68623 169.86685,404.49993 155.98175,400.79986 157.15678,396.40361 171.04219,400.10331 167.29906,386.26103 171.73891,385.04198 176.13545,401.45293 197.37751,407.19873 191.63164,385.95686 175.26487,381.51681 176.44024,377.11997 190.28205,380.86326 186.58259,366.9778 190.97913,365.80222 194.72193,379.6443 204.86463,369.50265 208.12908,372.76727 196.11586,384.78093 201.77416,406.02306 217.35768,390.44027 212.91791,374.07315 217.35782,372.85438 221.0578,386.73987 231.19991,376.5979 234.42065,379.81876 224.27916,389.9614 238.16447,393.66085 236.94578,398.10095 220.57852,393.6606 204.99559,409.24452 226.23745,414.90354 238.25166,402.88923 241.47286,406.11059 231.33037,416.25239 245.17251,419.99598 244.04085,424.43677 230.15506,420.73624 233.89851,434.57841 229.50199,435.75378 225.01867,419.34335 203.81982,413.64048 209.52216,434.83973 225.93252,439.23612 224.75722,443.71996 210.91518,439.9763 214.61535,453.86145 210.21849,455.03714 206.47501,441.10817 196.28964,451.29367 193.06846,448.07266 205.0818,436.05879 199.42291,414.81637 183.88338,430.3559 188.32392,446.81033 183.92688,447.98511 180.14026,434.09928 169.99779,444.24233 166.77673,441.0205" />
    <path
       inkscape:connector-curvature="0"
       id="path4025"
       style="font-size:72px;font-style:normal;font-variant:normal;font-weight:normal;font-stretch:normal;line-height:125%;letter-spacing:0px;word-spacing:0px;fill:#000000;fill-opacity:1;stroke:none;font-family:Wingdings;-inkscape-font-specification:Wingdings"
       d="M 827.59221,380.85408 C 828.60589,378.86285 829.89135,377.36007 831.44784,376.34603 833.00491,375.33231 834.81558,374.82525 836.8793,374.82564 840.42759,374.82519 843.43312,376.74486 845.89482,380.58266 L 846.76417,381.94043 C 847.9586,383.78706 849.62436,384.94546 851.76071,385.4166 L 853.33549,385.74206 C 855.83362,386.28566 857.87965,387.51635 859.47311,389.43524 861.06568,391.35404 861.86236,393.54526 861.86295,396.00708 861.86232,398.32449 860.63145,400.82268 858.16976,403.50211 861.28361,404.15407 863.63681,405.33062 865.23003,407.03269 866.78719,408.77027 867.56508,411.05136 867.56532,413.87541 867.56526,415.93919 866.76876,417.96701 865.17613,419.95892 L 863.87221,421.53337 C 862.17013,423.63339 861.31929,425.24473 861.31945,426.36698 861.31973,426.76565 861.35585,427.32694 861.42818,428.05131 L 861.53682,430.06017 C 861.57295,430.53155 861.59056,430.98361 861.59125,431.4181 861.59114,433.91643 860.5593,436.19758 858.49532,438.26135 856.46794,440.32543 854.22271,441.35728 851.76056,441.35709 850.09487,441.35769 848.15773,440.79586 845.94936,439.67326 846.23857,440.83225 846.3836,441.68301 846.38409,442.22654 846.38411,444.72486 845.36959,446.95129 843.34223,448.90683 841.31498,450.86156 838.99725,451.83924 836.3908,451.83943 835.15903,451.83949 833.81978,451.56746 832.3712,451.02491 L 830.52478,450.37305 C 828.82279,449.6849 827.68266,449.34149 827.10344,449.34126 826.27051,449.34148 825.16561,449.63069 823.79026,450.20983 L 822.26928,450.91634 C 820.85742,451.53159 819.4634,451.83905 818.08789,451.83973 815.44403,451.83943 813.09057,450.86159 811.02658,448.9068 808.92692,446.95163 807.87667,444.72509 807.87642,442.22663 807.87666,441.50236 807.96736,440.48864 808.14837,439.18508 807.35199,439.72784 806.50078,440.12656 805.59582,440.37983 804.69052,440.6332 803.73094,440.75987 802.7173,440.75991 799.85712,440.7602 797.4667,439.67354 795.54808,437.50109 793.62899,435.329 792.76011,432.74001 792.94149,429.73481 L 793.04984,427.45357 C 793.12208,426.40332 793.15855,425.77012 793.15818,425.55283 793.15847,424.3581 792.45214,422.94561 791.0399,421.31663 L 790.06256,420.22994 C 788.1432,418.05761 787.18397,415.8308 787.18396,413.54957 787.18429,410.87056 787.9446,408.64396 789.46505,406.86955 790.94957,405.09497 793.21228,403.79184 796.25444,402.9592 794.19045,400.46033 793.15834,398.01673 793.15841,395.6274 793.15821,390.44882 795.8376,387.15465 801.19669,385.74196 L 802.82579,385.30805 C 805.50552,384.62005 807.35156,383.35283 808.36555,381.50612 L 809.28864,379.87659 C 811.20824,376.47298 814.17718,374.77095 818.19607,374.7715 820.00669,374.77129 821.6903,375.27789 823.24739,376.29195 824.8038,377.30568 826.25212,378.82627 827.59221,380.85408 M 826.17995,396.44204 C 826.36068,394.88488 826.45159,393.5086 826.45183,392.31369 826.45139,387.38976 825.76361,383.67846 824.38756,381.17959 823.01149,378.71809 820.9663,377.48702 818.2504,377.48644 815.53472,377.48672 813.25436,378.91723 811.40685,381.77727 L 810.32093,383.4073 C 808.80026,385.76043 806.57317,387.28048 803.6406,387.96911 L 801.9029,388.34899 C 797.84749,389.29091 795.81968,391.75274 795.81948,395.73552 795.81975,397.90833 797.28598,400.4068 800.21865,403.23055 804.88957,403.8096 808.76422,404.95031 811.84169,406.65187 L 811.02627,409.15043 C 805.77686,406.86952 801.39566,405.72893 797.8831,405.729 795.20432,405.72864 793.21248,406.36276 791.90903,407.62995 790.56992,408.89731 789.89959,410.79825 789.89981,413.33254 789.89956,414.96206 790.60568,416.60897 792.0179,418.27504 L 793.32085,419.79555 C 795.0591,421.85969 795.92816,424.01385 795.92788,426.25875 795.92794,426.65698 795.91049,427.07327 795.87369,427.50814 L 795.76472,429.35439 C 795.729,429.75309 795.71137,430.18724 795.7111,430.65804 795.71086,432.75783 796.38106,434.53225 797.72018,435.98076 799.09664,437.42908 800.76234,438.15288 802.71685,438.15301 803.76763,438.15333 804.87177,437.93542 806.0302,437.50134 807.15285,437.1026 808.32922,436.48744 809.56086,435.65472 811.58772,431.78019 813.79702,428.5579 816.18619,425.98683 L 818.35868,427.6165 C 813.25367,433.51837 810.70083,438.36985 810.70088,442.17234 810.70139,444.05463 811.425,445.68417 812.87363,447.06031 814.32138,448.43596 816.05983,449.12402 818.08773,449.12403 818.91965,449.12395 819.97023,448.87083 821.2374,448.36346 L 823.02946,447.65754 C 824.69488,446.96936 826.05319,446.62563 827.10341,446.62539 827.97205,446.62557 829.38471,447.02392 831.33943,447.82073 L 833.02327,448.47235 C 834.36317,448.97946 835.5214,449.23237 836.49864,449.23255 838.59884,449.23268 840.31904,448.50853 841.65842,447.06061 842.99855,445.61162 843.66833,443.76493 843.6679,441.52049 843.66833,440.50628 843.54139,439.16712 843.28805,437.50142 840.68112,434.93086 838.23706,431.72634 835.95598,427.88767 L 838.1288,426.36756 C 843.12493,434.58643 847.57898,438.69577 851.48929,438.69643 853.69781,438.69631 855.50817,437.88092 856.92028,436.25158 858.36882,434.58666 859.03848,432.55873 858.92996,430.16937 L 858.82151,428.21373 C 858.78481,427.74334 858.76677,427.25448 858.76702,426.74774 858.76683,424.68383 859.74466,422.49274 861.69974,420.17602 L 862.94891,418.6548 C 864.28863,417.06203 864.95817,415.39689 864.95848,413.6582 864.95822,411.70336 864.16153,410.01982 862.56897,408.60722 860.97556,407.23174 858.60387,406.14536 855.45366,405.34878 852.37642,407.08634 848.51994,408.51677 843.88552,409.63953 L 843.07083,407.0863 C 849.4435,405.23991 853.71562,403.5567 855.88864,402.03588 858.06091,400.51495 859.14718,398.45111 859.1471,395.84437 859.14673,391.8252 857.11923,389.36276 853.06475,388.4578 L 851.27158,388.02324 C 848.26619,387.33516 845.98568,385.76034 844.42876,383.29845 L 843.39631,381.66926 C 841.69484,378.95311 839.45044,377.59565 836.66229,377.5955 835.14142,377.59527 833.71121,378.12086 832.37164,379.1705 830.99549,380.25677 829.71052,381.86802 828.51525,384.00448 829.05815,386.53866 829.32948,389.32668 829.32991,392.36859 829.3297,393.63555 829.20342,394.99293 828.94965,396.44171 L 826.17995,396.44204 M 827.32068,404.53437 828.515,401.65567 830.95893,402.19832 830.85035,405.23992 834.48921,401.05774 836.55375,402.63329 833.83736,407.46701 836.7707,406.4346 838.01935,408.77023 835.68476,410.72556 838.6714,410.83432 838.94346,413.33257 836.00993,414.14716 841.17,416.31995 840.30082,418.81835 834.92422,417.5688 836.71664,420.17624 834.92385,422.02223 832.48002,420.33863 833.24011,423.21748 830.79661,424.35785 829.27571,421.80559 828.78696,427.29051 826.07117,427.29073 825.63635,421.80536 823.78952,424.35771 821.34636,423.21712 822.16094,420.28434 819.71711,421.9683 817.97892,420.12119 819.87998,417.73212 814.39431,419.03563 813.6881,416.53675 818.68474,414.31044 815.75162,413.44155 816.07798,410.78001 819.01104,410.67113 816.67539,408.82485 817.92406,406.48931 820.80312,407.57559 817.76175,402.90496 819.98821,401.27572 823.62711,405.34879 823.68178,402.19879 826.18,401.70953 827.32068,404.53437 M 827.32069,405.29444 C 825.07537,405.2944 823.1749,406.07246 821.61711,407.62984 820.06074,409.18681 819.28233,411.08745 819.28228,413.33243 819.28198,415.57767 820.06059,417.47784 821.6174,419.03586 823.17442,420.59239 825.07538,421.37086 827.32046,421.37047 829.56564,421.37072 831.46609,420.59216 833.02327,419.03552 834.58045,417.47852 835.35901,415.57734 835.35813,413.33233 835.35891,411.08738 834.59828,409.18674 833.07754,407.62994 831.52064,406.07272 829.60151,405.29446 827.32069,405.29444 M 827.42936,409.9651 C 829.60172,409.96525 830.68771,411.08799 830.68743,413.33258 830.68814,415.54136 829.60184,416.6457 827.42879,416.64564 825.25674,416.64541 824.17076,415.54139 824.17019,413.33269 824.17001,411.08755 825.25629,409.96506 827.42936,409.9651" />
    <text
       xml:space="preserve"
       style="font-size:72px;font-style:normal;font-variant:normal;font-weight:normal;font-stretch:normal;line-height:125%;letter-spacing:0px;word-spacing:0px;fill:#000000;fill-opacity:1;stroke:none;font-family:Wingdings;-inkscape-font-specification:Wingdings"
       x="-1593.1335"
       y="175.11884"
       id="text3920"
       sodipodi:linespacing="125%"
       transform="matrix(0,-1,1,0,0,0)"><tspan
         sodipodi:role="line"
         id="tspan3922"
         x="-1593.1335"
         y="175.11884" /></text>
    <path
       inkscape:connector-curvature="0"
       style="fill:#000000"
       d="M 149.09884,915.37775 C 149.25967,915.33232 150.05992,915.44781 150.87697,915.62517 152.50933,915.98578 152.32789,915.96153 161.55848,917.09206 165.11585,917.53072 168.39315,918.09537 168.84198,918.35397 170.23365,919.16131 170.35185,918.73382 169.38444,916.40081 167.25952,911.26974 167.09948,910.63111 167.79369,910.1306 168.17893,909.84865 168.83921,909.94507 169.32381,910.3399 169.79119,910.7288 170.8079,911.47101 171.58165,911.99017 172.77044,912.78251 174.97388,914.84558 179.04255,918.98217 180.8399,920.80977 184.52924,923.80152 184.87266,923.70423 185.29919,923.59566 184.62316,920.49198 182.99915,915.12116 182.19558,912.45634 182.03043,911.29831 182.44382,911.18362 183.37495,910.93631 186.78695,911.67448 186.91411,912.15285 186.97888,912.39536 187.48626,912.47191 188.04414,912.31722 188.60041,912.17167 188.88148,911.88519 188.66665,911.68127 188.17206,911.21243 189.26055,910.39875 190.03663,910.65083 190.91471,910.9365 192.05398,912.34227 192.94761,914.2328 193.38659,915.1702 194.47579,916.39189 195.36472,916.95459 197.27388,918.15543 198.02619,919.12472 200.60383,923.70593 202.82723,927.66299 205.7331,931.2703 206.53359,931.0702 206.85809,930.98767 206.83578,929.5308 206.48213,927.5333 206.15159,925.66729 205.86648,923.67204 205.84913,923.09157 205.83303,922.51834 205.76037,921.7572 205.68797,921.40589 205.61576,921.05526 205.90589,920.52424 206.33242,920.22089 207.55735,919.35582 207.60485,918.64205 206.67327,915.13459 206.19328,913.3207 205.99833,911.63313 206.24159,911.37357 206.95673,910.6125 209.59364,912.36568 211.16266,914.6442 212.14541,916.0735 212.94362,916.72321 213.6177,916.64298 214.68484,916.52254 216.95606,918.45773 217.39794,919.86983 217.653,920.68591 218.2332,920.78786 219.51692,920.26477 220.18388,919.9864 220.52211,920.87194 222.05191,926.88822 223.06002,930.85295 223.12337,932.10869 222.5131,936.09948 222.36712,937.04836 222.39287,938.37105 222.57016,939.03003 222.92693,940.3594 224.94054,941.95321 225.93002,941.68674 226.5961,941.51253 229.34146,938.21712 229.44248,937.47586 229.47628,937.2356 229.81694,936.95847 230.19896,936.85538 230.5823,936.75104 230.84092,936.46432 230.77398,936.21693 230.7083,935.96938 231.28373,934.68497 232.05603,933.37255 232.82723,932.05151 233.42093,930.21867 233.37396,929.28555 233.30092,927.80359 233.95797,926.72341 234.33266,927.71358 234.40757,927.91148 234.6327,928.38117 234.83243,928.76637 237.87419,934.57297 240.49772,944.0327 239.5292,945.70734 239.41028,945.9174 239.64469,946.64523 240.0528,947.32254 240.84485,948.63674 241.50739,951.89511 241.59482,954.88278 241.66509,957.35599 241.20439,962.05884 240.8624,962.35069 240.71052,962.47697 241.53478,963.91026 242.69398,965.5446 243.8534,967.17922 245.04109,968.9221 245.33475,969.42464 245.62492,969.92461 246.09321,970.51057 246.37182,970.72264 247.12975,971.30684 250.41972,976.22971 250.10843,976.30962 249.96017,976.35049 250.21618,976.65241 250.67721,976.97884 251.7733,977.75418 254.54189,987.62869 254.18759,989.4961 254.04867,990.22708 253.91263,991.27686 253.88566,991.82051 253.84517,992.60013 253.52627,992.82045 252.40157,992.8373 251.6123,992.85302 250.72926,992.64751 250.43488,992.38638 249.84785,991.86369 249.38221,988.78345 249.48483,986.10347 249.52318,985.16249 249.35336,984.19645 249.1115,983.96761 248.86985,983.73897 248.31629,982.63753 247.8834,981.52413 245.72552,975.94741 242.16876,971.28966 239.16418,970.08766 237.71042,969.50941 237.66785,969.52217 236.89236,970.75698 236.15053,971.94596 230.61087,977.07157 228.63865,978.39563 228.14805,978.72725 227.00573,979.58137 226.10174,980.2971 224.27779,981.74845 223.07689,982.21405 222.89896,981.55629 222.83429,981.31313 221.12801,980.91518 219.10588,980.67476 217.08483,980.42557 215.03529,980.14514 214.55383,980.0425 212.25226,979.55858 206.28245,979.96733 200.15131,981.019 198.65642,981.27603 197.30376,981.41218 197.14318,981.32259 196.54461,980.97684 198.80864,978.13502 201.72251,975.57677 204.66614,972.99433 205.3402,971.97204 203.84021,972.37783 202.47106,972.73865 202.8799,971.78823 204.73163,970.29117 206.49543,968.8663 206.5162,968.80465 205.24981,968.78285 204.52291,968.77584 202.08824,969.23369 199.83791,969.8138 194.57789,971.15023 184.67372,971.86507 182.95619,971.0274 182.63885,970.875 181.9819,970.85277 181.49588,970.98238 180.40191,971.27449 179.77944,969.43822 180.73691,968.74335 181.10067,968.4816 181.35963,968.11929 181.31185,967.93836 181.22338,967.60781 175.71964,967.44744 173.25245,967.70506 171.48962,967.89058 167.50391,967.18901 165.68075,966.37899 L 164.26148,965.75498 166.58033,964.82472 C 169.14726,963.80342 174.791,960.293 175.89868,959.03433 176.56393,958.27545 176.49886,958.13273 174.88874,956.73723 173.94295,955.92446 173.14213,955.14887 173.10864,955.02741 172.96513,954.49534 175.61976,954.19649 177.79922,954.50052 180.07391,954.82282 182.17161,954.72546 187.00713,954.06109 188.9401,953.79493 189.14099,953.67068 188.57174,953.08427 186.17361,950.62119 180.45334,948.62501 173.26768,947.74898 170.36603,947.39559 168.02004,946.90508 167.21654,946.47496 166.511,946.09401 166.45758,945.78336 166.88115,944.50186 167.37978,942.98562 167.36465,942.96349 165.35158,942.03789 164.23346,941.52314 163.04791,941.16981 162.71734,941.25436 162.07285,941.41064 157.7725,939.08899 157.6177,938.50114 157.56642,938.30636 159.96913,937.46264 162.95824,936.61899 165.94679,935.77523 168.54939,934.81131 168.74427,934.47719 168.97395,934.07956 168.17437,933.44777 166.44354,932.66314 164.98313,932.00883 163.61458,931.51349 163.40224,931.56827 163.18851,931.62367 162.17867,931.1674 161.15652,930.54679 L 159.29804,929.41524 160.02696,928.05435 160.75565,926.69694 158.66053,925.17451 C 157.50806,924.33873 156.41785,923.57434 156.23654,923.47712 155.41752,923.04098 152.20043,920.33679 150.83396,918.93462 149.40287,917.47404 148.46495,915.54929 149.09884,915.37775 z"
       id="path3998" />
    <path
       sodipodi:type="arc"
       style="fill:#ffffff;stroke:#000000;stroke-width:9.0947361;stroke-miterlimit:4;stroke-dasharray:none"
       id="path6595"
       sodipodi:cx="202.5"
       sodipodi:cy="157.5"
       sodipodi:rx="22.5"
       sodipodi:ry="22.5"
       d="M 225,157.5 A 22.5,22.5 0 1 1 180,157.5 22.5,22.5 0 1 1 225,157.5 z"
       transform="matrix(-0.75513262,-0.2023375,-0.2023375,0.75513262,758.16524,395.13044)" />
    <path
       transform="matrix(-0.75513262,-0.2023375,-0.2023375,0.75513262,644.80334,822.07175)"
       d="M 225,157.5 A 22.5,22.5 0 1 1 180,157.5 22.5,22.5 0 1 1 225,157.5 z"
       sodipodi:ry="22.5"
       sodipodi:rx="22.5"
       sodipodi:cy="157.5"
       sodipodi:cx="202.5"
       id="path6597"
       style="fill:#ffffff;stroke:#000000;stroke-width:9.0947361;stroke-miterlimit:4;stroke-dasharray:none"
       sodipodi:type="arc" />
    <path
       transform="matrix(-0.20232324,-0.75508068,-0.75508068,0.20232324,873.99626,744.80858)"
       d="M 225,157.5 A 22.5,22.5 0 1 1 180,157.5 22.5,22.5 0 1 1 225,157.5 z"
       sodipodi:ry="22.5"
       sodipodi:rx="22.5"
       sodipodi:cy="157.5"
       sodipodi:cx="202.5"
       id="path6607"
       style="fill:#ffffff;stroke:#000000;stroke-width:9.09536266;stroke-miterlimit:4;stroke-dasharray:none"
       sodipodi:type="arc" />
    <path
       sodipodi:type="arc"
       style="fill:#ffffff;stroke:#000000;stroke-width:9.23484707;stroke-miterlimit:4;stroke-dasharray:none"
       id="path6609"
       sodipodi:cx="202.5"
       sodipodi:cy="157.5"
       sodipodi:rx="22.5"
       sodipodi:ry="22.5"
       d="M 225,157.5 A 22.5,22.5 0 1 1 180,157.5 22.5,22.5 0 1 1 225,157.5 z"
       transform="matrix(-0.19926729,-0.74367583,-0.74367583,0.19926729,510.54594,838.99331)" />
    <g
       id="g7460"
       transform="matrix(0.70710679,0.70710678,-0.70710678,0.70710679,696.1887,-199.39024)">
      <path
         sodipodi:type="arc"
         style="fill:#ffffff;stroke:#000000;stroke-width:9;stroke-miterlimit:4;stroke-dasharray:none"
         id="path3825"
         sodipodi:cx="202.5"
         sodipodi:cy="157.5"
         sodipodi:rx="22.5"
         sodipodi:ry="22.5"
         d="M 225,157.5 C 225,169.92641 214.92641,180 202.5,180 190.07359,180 180,169.92641 180,157.5 180,145.07359 190.07359,135 202.5,135 214.92641,135 225,145.07359 225,157.5 z"
         transform="matrix(-0.7855398,0,0,0.7855398,654.1164,876.16021)" />
      <text
         transform="scale(-1,-1)"
         sodipodi:linespacing="125%"
         id="text6655"
         y="-992.46265"
         x="-495.35614"
         style="font-size:36.28705215px;font-style:normal;font-variant:normal;font-weight:normal;font-stretch:normal;text-align:center;line-height:125%;letter-spacing:0px;word-spacing:0px;text-anchor:middle;fill:#000000;fill-opacity:1;stroke:none;font-family:American Typewriter;-inkscape-font-specification:American Typewriter"
         xml:space="preserve"><tspan
           style="font-size:20px;font-style:normal;font-variant:normal;font-weight:normal;font-stretch:normal;text-align:center;text-anchor:middle;font-family:Arial;-inkscape-font-specification:Arial"
           y="-992.46265"
           x="-495.35614"
           id="tspan6657"
           sodipodi:role="line">O</tspan></text>
    </g>
    <text
       xml:space="preserve"
       style="font-size:20px;font-style:normal;font-variant:normal;font-weight:normal;font-stretch:normal;text-align:center;line-height:125%;letter-spacing:0px;word-spacing:0px;text-anchor:middle;fill:#000000;fill-opacity:1;stroke:none;font-family:Arial;-inkscape-font-specification:Arial"
       x="-676.94568"
       y="-835.55243"
       id="text6659"
       sodipodi:linespacing="125%"
       transform="matrix(-0.96592583,-0.25881905,0.25881905,-0.96592583,0,0)"><tspan
         sodipodi:role="line"
         id="tspan6661"
         x="-676.94568"
         y="-835.55243">S</tspan></text>
    <g
       id="g7445"
       transform="matrix(0.96592583,-0.25881905,0.25881905,0.96592583,-136.89013,138.89087)">
      <path
         transform="matrix(0.78554016,3.0603846e-7,3.0603846e-7,-0.78554016,335.36777,1120.3183)"
         d="M 225,157.5 C 225,169.92641 214.92641,180 202.5,180 190.07359,180 180,169.92641 180,157.5 180,145.07359 190.07359,135 202.5,135 214.92641,135 225,145.07359 225,157.5 z"
         sodipodi:ry="22.5"
         sodipodi:rx="22.5"
         sodipodi:cy="157.5"
         sodipodi:cx="202.5"
         id="path3815"
         style="fill:#ffffff;stroke:#000000;stroke-width:9;stroke-miterlimit:4;stroke-dasharray:none"
         sodipodi:type="arc" />
      <text
         transform="scale(-1,-1)"
         sodipodi:linespacing="125%"
         id="text6663"
         y="-989.43756"
         x="-494.37622"
         style="font-size:20px;font-style:normal;font-variant:normal;font-weight:normal;font-stretch:normal;text-align:center;line-height:125%;letter-spacing:0px;word-spacing:0px;text-anchor:middle;fill:#000000;fill-opacity:1;stroke:none;font-family:Arial;-inkscape-font-specification:Arial"
         xml:space="preserve"><tspan
           y="-989.43756"
           x="-494.37622"
           id="tspan6665"
           sodipodi:role="line">A</tspan></text>
    </g>
    <g
       id="g7435"
       transform="matrix(0.70710678,-0.70710679,0.70710679,0.70710678,-322.25256,543.63735)">
      <path
         transform="matrix(0.78553981,0,0,-0.78553981,338.7358,1109.6548)"
         d="M 225,157.5 C 225,169.92641 214.92641,180 202.5,180 190.07359,180 180,169.92641 180,157.5 180,145.07359 190.07359,135 202.5,135 214.92641,135 225,145.07359 225,157.5 z"
         sodipodi:ry="22.5"
         sodipodi:rx="22.5"
         sodipodi:cy="157.5"
         sodipodi:cx="202.5"
         id="path3831"
         style="fill:#ffffff;stroke:#000000;stroke-width:9;stroke-miterlimit:4;stroke-dasharray:none"
         sodipodi:type="arc" />
      <text
         transform="scale(-1,-1)"
         sodipodi:linespacing="125%"
         id="text6667"
         y="-978.40997"
         x="-497.68393"
         style="font-size:20px;font-style:normal;font-variant:normal;font-weight:normal;font-stretch:normal;text-align:center;line-height:125%;letter-spacing:0px;word-spacing:0px;text-anchor:middle;fill:#000000;fill-opacity:1;stroke:none;font-family:Arial;-inkscape-font-specification:Arial"
         xml:space="preserve"><tspan
           y="-978.40997"
           x="-497.68393"
           id="tspan6669"
           sodipodi:role="line">J</tspan></text>
    </g>
    <text
       xml:space="preserve"
       style="font-size:20px;font-style:normal;font-variant:normal;font-weight:normal;font-stretch:normal;text-align:center;line-height:125%;letter-spacing:0px;word-spacing:0px;text-anchor:middle;fill:#000000;fill-opacity:1;stroke:none;font-family:Arial;-inkscape-font-specification:Arial"
       x="517.69543"
       y="-962.39673"
       id="text6671"
       sodipodi:linespacing="125%"
       transform="matrix(-0.25881905,0.96592583,-0.96592583,-0.25881905,0,0)"><tspan
         sodipodi:role="line"
         id="tspan6673"
         x="517.69543"
         y="-962.39673">J</tspan></text>
    <text
       xml:space="preserve"
       style="font-size:20px;font-style:normal;font-variant:normal;font-weight:normal;font-stretch:normal;text-align:center;line-height:125%;letter-spacing:0px;word-spacing:0px;text-anchor:middle;fill:#000000;fill-opacity:1;stroke:none;font-family:Arial;-inkscape-font-specification:Arial"
       x="787.3493"
       y="-615.88544"
       id="text6675"
       sodipodi:linespacing="125%"
       transform="matrix(0.25881905,0.96592583,-0.96592583,0.25881905,0,0)"><tspan
         sodipodi:role="line"
         id="tspan6677"
         x="787.3493"
         y="-615.88544">M</tspan></text>
    <text
       xml:space="preserve"
       style="font-size:20px;font-style:normal;font-variant:normal;font-weight:normal;font-stretch:normal;text-align:center;line-height:125%;letter-spacing:0px;word-spacing:0px;text-anchor:middle;fill:#000000;fill-opacity:1;stroke:none;font-family:Arial;-inkscape-font-specification:Arial"
       x="846.84174"
       y="-180.63919"
       id="text6679"
       sodipodi:linespacing="125%"
       transform="matrix(0.70710678,0.70710678,-0.70710678,0.70710678,0,0)"><tspan
         sodipodi:role="line"
         id="tspan6681"
         x="846.84174"
         y="-180.63919">A</tspan></text>
    <text
       xml:space="preserve"
       style="font-size:20px;font-style:normal;font-variant:normal;font-weight:normal;font-stretch:normal;text-align:center;line-height:125%;letter-spacing:0px;word-spacing:0px;text-anchor:middle;fill:#000000;fill-opacity:1;stroke:none;font-family:Arial;-inkscape-font-specification:Arial"
       x="677.22021"
       y="219.46045"
       id="text6683"
       sodipodi:linespacing="125%"
       transform="matrix(0.96592583,0.25881905,-0.25881905,0.96592583,0,0)"><tspan
         sodipodi:role="line"
         id="tspan6685"
         x="677.22021"
         y="219.46045">M</tspan></text>
    <text
       xml:space="preserve"
       style="font-size:20px;font-style:normal;font-variant:normal;font-weight:normal;font-stretch:normal;text-align:center;line-height:125%;letter-spacing:0px;word-spacing:0px;text-anchor:middle;fill:#000000;fill-opacity:1;stroke:none;font-family:Arial;-inkscape-font-specification:Arial"
       x="-789.55237"
       y="58.772339"
       id="text6699"
       sodipodi:linespacing="125%"
       transform="matrix(-0.25881905,-0.96592583,0.96592583,-0.25881905,0,0)"><tspan
         sodipodi:role="line"
         id="tspan6701"
         x="-789.55237"
         y="58.772339">N</tspan></text>
    <text
       xml:space="preserve"
       style="font-size:20px;font-style:normal;font-variant:normal;font-weight:normal;font-stretch:normal;text-align:center;line-height:125%;letter-spacing:0px;word-spacing:0px;text-anchor:middle;fill:#000000;fill-opacity:1;stroke:none;font-family:Arial;-inkscape-font-specification:Arial"
       x="-518.69556"
       y="389.29361"
       id="text6703"
       sodipodi:linespacing="125%"
       transform="matrix(0.25881905,-0.96592583,0.96592583,0.25881905,0,0)"><tspan
         sodipodi:role="line"
         id="tspan6705"
         x="-518.69556"
         y="389.29361">D</tspan></text>
    <g
       id="g7411"
       transform="matrix(0.70710678,-0.70710679,0.70710679,0.70710678,-298.21099,564.85036)">
      <path
         sodipodi:type="arc"
         style="fill:#ffffff;stroke:#000000;stroke-width:9;stroke-miterlimit:4;stroke-dasharray:none"
         id="path3833"
         sodipodi:cx="202.5"
         sodipodi:cy="157.5"
         sodipodi:rx="22.5"
         sodipodi:ry="22.5"
         d="M 225,157.5 C 225,169.92641 214.92641,180 202.5,180 190.07359,180 180,169.92641 180,157.5 180,145.07359 190.07359,135 202.5,135 214.92641,135 225,145.07359 225,157.5 z"
         transform="matrix(0.78553981,0,0,-0.78553981,338.73581,473.37)" />
      <text
         sodipodi:linespacing="125%"
         id="text6707"
         y="356.32047"
         x="497.48523"
         style="font-size:20px;font-style:normal;font-variant:normal;font-weight:normal;font-stretch:normal;text-align:center;line-height:125%;letter-spacing:0px;word-spacing:0px;text-anchor:middle;fill:#000000;fill-opacity:1;stroke:none;font-family:Arial;-inkscape-font-specification:Arial"
         xml:space="preserve"><tspan
           y="356.32047"
           x="497.48523"
           id="tspan6709"
           sodipodi:role="line">J</tspan></text>
    </g>
    <g
       id="g7440"
       transform="matrix(0.96592583,-0.25881905,0.25881905,0.96592583,-132.19673,158.33866)">
      <path
         sodipodi:type="arc"
         style="fill:#ffffff;stroke:#000000;stroke-width:9;stroke-miterlimit:4;stroke-dasharray:none"
         id="path3817"
         sodipodi:cx="202.5"
         sodipodi:cy="157.5"
         sodipodi:rx="22.5"
         sodipodi:ry="22.5"
         d="M 225,157.5 C 225,169.92641 214.92641,180 202.5,180 190.07359,180 180,169.92641 180,157.5 180,145.07359 190.07359,135 202.5,135 214.92641,135 225,145.07359 225,157.5 z"
         transform="matrix(0.78554016,3.0603846e-7,3.0603846e-7,-0.78554016,335.36798,484.03189)" />
      <text
         sodipodi:linespacing="125%"
         id="text6711"
         y="367.46759"
         x="494.46432"
         style="font-size:20px;font-style:normal;font-variant:normal;font-weight:normal;font-stretch:normal;text-align:center;line-height:125%;letter-spacing:0px;word-spacing:0px;text-anchor:middle;fill:#000000;fill-opacity:1;stroke:none;font-family:Arial;-inkscape-font-specification:Arial"
         xml:space="preserve"><tspan
           y="367.46759"
           x="494.46432"
           id="tspan6713"
           sodipodi:role="line">F</tspan></text>
    </g>
    <path
       sodipodi:type="arc"
       style="fill:#ffffff;stroke:#000000;stroke-width:9;stroke-miterlimit:4;stroke-dasharray:none"
       id="path6731"
       sodipodi:cx="202.5"
       sodipodi:cy="157.5"
       sodipodi:rx="22.5"
       sodipodi:ry="22.5"
       d="M 225,157.5 A 22.5,22.5 0 1 1 180,157.5 22.5,22.5 0 1 1 225,157.5 z"
       transform="matrix(0.55546053,-0.55546052,-0.55546052,-0.55546053,345.33112,729.34768)" />
    <text
       sodipodi:linespacing="125%"
       id="text6715"
       y="642.8631"
       x="-112.79147"
       style="font-size:20px;font-style:normal;font-variant:normal;font-weight:normal;font-stretch:normal;text-align:center;line-height:125%;letter-spacing:0px;word-spacing:0px;text-anchor:middle;fill:#000000;fill-opacity:1;stroke:none;font-family:Arial;-inkscape-font-specification:Arial"
       xml:space="preserve"
       transform="matrix(0.70710678,-0.70710678,0.70710678,0.70710678,0,0)"><tspan
         y="642.8631"
         x="-112.79147"
         id="tspan6717"
         sodipodi:role="line">J</tspan></text>
    <g
       id="g7420"
       transform="matrix(0.70710678,-0.70710679,0.70710679,0.70710678,-288.31162,574.75021)">
      <path
         transform="matrix(0.78554029,0,0,-0.78554029,336.18978,685.46568)"
         d="M 225,157.5 C 225,169.92641 214.92641,180 202.5,180 190.07359,180 180,169.92641 180,157.5 180,145.07359 190.07359,135 202.5,135 214.92641,135 225,145.07359 225,157.5 z"
         sodipodi:ry="22.5"
         sodipodi:rx="22.5"
         sodipodi:cy="157.5"
         sodipodi:cx="202.5"
         id="path3865"
         style="fill:#ffffff;stroke:#000000;stroke-width:9;stroke-miterlimit:4;stroke-dasharray:none"
         sodipodi:type="arc" />
      <text
         sodipodi:linespacing="125%"
         id="text6719"
         y="568.32037"
         x="495.48523"
         style="font-size:20px;font-style:normal;font-variant:normal;font-weight:normal;font-stretch:normal;text-align:center;line-height:125%;letter-spacing:0px;word-spacing:0px;text-anchor:middle;fill:#000000;fill-opacity:1;stroke:none;font-family:Arial;-inkscape-font-specification:Arial"
         xml:space="preserve"><tspan
           y="568.32037"
           x="495.48523"
           id="tspan6721"
           sodipodi:role="line">J</tspan></text>
    </g>
    <text
       sodipodi:linespacing="125%"
       id="text6733"
       y="315.60413"
       x="676.79779"
       style="font-size:20px;font-style:normal;font-variant:normal;font-weight:normal;font-stretch:normal;text-align:center;line-height:125%;letter-spacing:0px;word-spacing:0px;text-anchor:middle;fill:#000000;fill-opacity:1;stroke:none;font-family:Arial;-inkscape-font-specification:Arial"
       xml:space="preserve"
       transform="matrix(0.96592583,0.25881905,-0.25881905,0.96592583,0,0)"><tspan
         y="315.60413"
         x="676.79779"
         id="tspan6735"
         sodipodi:role="line">M</tspan></text>
    <text
       sodipodi:linespacing="125%"
       id="text6737"
       y="30.003317"
       x="846.84174"
       style="font-size:20px;font-style:normal;font-variant:normal;font-weight:normal;font-stretch:normal;text-align:center;line-height:125%;letter-spacing:0px;word-spacing:0px;text-anchor:middle;fill:#000000;fill-opacity:1;stroke:none;font-family:Arial;-inkscape-font-specification:Arial"
       xml:space="preserve"
       transform="matrix(0.70710678,0.70710678,-0.70710678,0.70710678,0,0)"><tspan
         y="30.003317"
         x="846.84174"
         id="tspan6739"
         sodipodi:role="line">A</tspan></text>
    <text
       sodipodi:linespacing="125%"
       id="text6741"
       y="-521.38544"
       x="787.3493"
       style="font-size:20px;font-style:normal;font-variant:normal;font-weight:normal;font-stretch:normal;text-align:center;line-height:125%;letter-spacing:0px;word-spacing:0px;text-anchor:middle;fill:#000000;fill-opacity:1;stroke:none;font-family:Arial;-inkscape-font-specification:Arial"
       xml:space="preserve"
       transform="matrix(0.25881905,0.96592583,-0.96592583,0.25881905,0,0)"><tspan
         y="-521.38544"
         x="787.3493"
         id="tspan6743"
         sodipodi:role="line">M</tspan></text>
    <g
       id="g7430"
       transform="matrix(0.70710678,-0.70710679,0.70710679,0.70710678,-312.35328,553.5368)">
      <path
         sodipodi:type="arc"
         style="fill:#ffffff;stroke:#000000;stroke-width:9.0953598;stroke-miterlimit:4;stroke-dasharray:none"
         id="path6613"
         sodipodi:cx="202.5"
         sodipodi:cy="157.5"
         sodipodi:rx="22.5"
         sodipodi:ry="22.5"
         d="M 225,157.5 C 225,169.92641 214.92641,180 202.5,180 190.07359,180 180,169.92641 180,157.5 180,145.07359 190.07359,135 202.5,135 214.92641,135 225,145.07359 225,157.5 z"
         transform="matrix(-0.78171726,3.059476e-7,3.059476e-7,0.78171726,656.02509,755.84729)" />
      <text
         transform="scale(-1,-1)"
         xml:space="preserve"
         style="font-size:20px;font-style:normal;font-variant:normal;font-weight:normal;font-stretch:normal;text-align:center;line-height:125%;letter-spacing:0px;word-spacing:0px;text-anchor:middle;fill:#000000;fill-opacity:1;stroke:none;font-family:Arial;-inkscape-font-specification:Arial"
         x="-497.59283"
         y="-871.34302"
         id="text6745"
         sodipodi:linespacing="125%"><tspan
           sodipodi:role="line"
           id="tspan6747"
           x="-497.59283"
           y="-871.34302">J</tspan></text>
    </g>
    <g
       id="g7425"
       transform="matrix(0.70710678,-0.70710679,0.70710679,0.70710678,-312.35331,550.70849)">
      <path
         sodipodi:type="arc"
         style="fill:#ffffff;stroke:#000000;stroke-width:9;stroke-miterlimit:4;stroke-dasharray:none"
         id="path3863"
         sodipodi:cx="202.5"
         sodipodi:cy="157.5"
         sodipodi:rx="22.5"
         sodipodi:ry="22.5"
         d="M 225,157.5 C 225,169.92641 214.92641,180 202.5,180 190.07359,180 180,169.92641 180,157.5 180,145.07359 190.07359,135 202.5,135 214.92641,135 225,145.07359 225,157.5 z"
         transform="matrix(0.78554029,0,0,-0.78554029,336.18968,897.56168)" />
      <text
         transform="scale(-1,-1)"
         sodipodi:linespacing="125%"
         id="text6749"
         y="-766.45282"
         x="-495.69009"
         style="font-size:20px;font-style:normal;font-variant:normal;font-weight:normal;font-stretch:normal;text-align:center;line-height:125%;letter-spacing:0px;word-spacing:0px;text-anchor:middle;fill:#000000;fill-opacity:1;stroke:none;font-family:Arial;-inkscape-font-specification:Arial"
         xml:space="preserve"><tspan
           y="-766.45282"
           x="-495.69009"
           id="tspan6751"
           sodipodi:role="line">J</tspan></text>
    </g>
    <text
       sodipodi:linespacing="125%"
       id="text6753"
       y="-743.14343"
       x="-677.52557"
       style="font-size:20px;font-style:normal;font-variant:normal;font-weight:normal;font-stretch:normal;text-align:center;line-height:125%;letter-spacing:0px;word-spacing:0px;text-anchor:middle;fill:#000000;fill-opacity:1;stroke:none;font-family:Arial;-inkscape-font-specification:Arial"
       xml:space="preserve"
       transform="matrix(-0.96592583,-0.25881905,0.25881905,-0.96592583,0,0)"><tspan
         y="-743.14343"
         x="-677.52557"
         id="tspan6755"
         sodipodi:role="line">S</tspan></text>
    <text
       sodipodi:linespacing="125%"
       id="text6761"
       y="161.27214"
       x="-787.05237"
       style="font-size:20px;font-style:normal;font-variant:normal;font-weight:normal;font-stretch:normal;text-align:center;line-height:125%;letter-spacing:0px;word-spacing:0px;text-anchor:middle;fill:#000000;fill-opacity:1;stroke:none;font-family:Arial;-inkscape-font-specification:Arial"
       xml:space="preserve"
       transform="matrix(-0.25881905,-0.96592583,0.96592583,-0.25881905,0,0)"><tspan
         y="161.27214"
         x="-787.05237"
         id="tspan6763"
         sodipodi:role="line">N</tspan></text>
    <text
       xml:space="preserve"
       style="font-size:20px;font-style:normal;font-variant:normal;font-weight:normal;font-stretch:normal;text-align:center;line-height:125%;letter-spacing:0px;word-spacing:0px;text-anchor:middle;fill:#000000;fill-opacity:1;stroke:none;font-family:Arial;-inkscape-font-specification:Arial"
       x="-692.46436"
       y="443.67926"
       id="text6765"
       sodipodi:linespacing="125%"
       transform="matrix(0,-1,1,0,0,0)"><tspan
         sodipodi:role="line"
         id="tspan6767"
         x="-692.46436"
         y="443.67926" /></text>
    <flowRoot
       xml:space="preserve"
       id="flowRoot6769"
       style="font-size:20px;font-style:normal;font-variant:normal;font-weight:normal;font-stretch:normal;text-align:center;line-height:125%;letter-spacing:0px;word-spacing:0px;text-anchor:middle;fill:#000000;fill-opacity:1;stroke:none;font-family:Arial;-inkscape-font-specification:Arial"
       transform="matrix(0,-1,1,0,126.67923,1157.4644)"><flowRegion
         id="flowRegion6771"><rect
           id="rect6773"
           width="892.36877"
           height="964.49365"
           x="113.13708"
           y="-38.273304" /></flowRegion><flowPara
         id="flowPara6775" /></flowRoot>    <path
       sodipodi:type="arc"
       style="fill:#ffffff;stroke:#000000;stroke-width:9.0947361;stroke-miterlimit:4;stroke-dasharray:none"
       id="path7465"
       sodipodi:cx="202.5"
       sodipodi:cy="157.5"
       sodipodi:rx="22.5"
       sodipodi:ry="22.5"
       d="M 225,157.5 A 22.5,22.5 0 1 1 180,157.5 22.5,22.5 0 1 1 225,157.5 z"
       transform="matrix(-0.75513262,-0.2023375,-0.2023375,0.75513262,672.23811,719.68359)" />
    <text
       xml:space="preserve"
       style="font-size:20px;font-style:normal;font-variant:normal;font-weight:normal;font-stretch:normal;text-align:center;line-height:125%;letter-spacing:0px;word-spacing:0px;text-anchor:middle;fill:#000000;fill-opacity:1;stroke:none;font-family:Arial;-inkscape-font-specification:Arial"
       x="-677.52557"
       y="-637.14349"
       id="text7467"
       sodipodi:linespacing="125%"
       transform="matrix(-0.96592583,-0.25881905,0.25881905,-0.96592583,0,0)"><tspan
         sodipodi:role="line"
         id="tspan7469"
         x="-677.52557"
         y="-637.14349">S</tspan></text>
    <path
       style="fill:none;stroke:none"
       d="M 49.215447,1285.9955 C 55.076135,1264.1232 77.558055,1251.1432 99.430275,1257.004 112.93631,1260.6231 123.66683,1270.8754 127.89702,1284.2028"
       id="path7475"
       inkscape:connector-curvature="0" />
    <text
       xml:space="preserve"
       style="font-size:72px;font-style:normal;font-variant:normal;font-weight:normal;font-stretch:normal;line-height:125%;letter-spacing:0px;word-spacing:0px;fill:#000000;fill-opacity:1;stroke:none;font-family:Nanum Pen Script;-inkscape-font-specification:Nanum Pen Script"
       x="93.207222"
       y="340.6326"
       id="text3812"
       sodipodi:linespacing="125%"><tspan
         sodipodi:role="line"
         id="tspan3814"
         x="93.207222"
         y="340.6326"
         style="font-size:36px">Green Home Games</tspan></text>
    <path
       sodipodi:type="arc"
       style="fill:#ffffff;stroke:#000000;stroke-width:9;stroke-miterlimit:4;stroke-dasharray:none"
       id="path3373"
       sodipodi:cx="202.5"
       sodipodi:cy="157.5"
       sodipodi:rx="22.5"
       sodipodi:ry="22.5"
       d="M 225,157.5 A 22.5,22.5 0 1 1 180,157.5 22.5,22.5 0 1 1 225,157.5 z"
       transform="matrix(0.55546053,-0.55546053,-0.55546053,-0.55546053,478.03468,860.05119)" />
    <path
       sodipodi:type="star"
       style="fill:#000000;fill-opacity:1;stroke:none"
       id="path3382"
       sodipodi:sides="5"
       sodipodi:cx="-170.07382"
       sodipodi:cy="106.41628"
       sodipodi:r1="35.391327"
       sodipodi:r2="65.679626"
       sodipodi:arg1="0.80058138"
       sodipodi:arg2="1.4288999"
       inkscape:flatsided="false"
       inkscape:rounded="0.08"
       inkscape:randomized="0"
       d="M -145.43121,131.8188 C -147.87093,134.18553 -157.42046,170.9551 -160.78536,171.4358 -164.15026,171.9165 -183.61325,139.29155 -186.61806,137.70261 -189.62288,136.11366 -227.54378,138.39394 -229.04077,135.34227 -230.53775,132.2906 -205.52398,103.69854 -204.94134,100.34978 -204.3587,97.001022 -218.24558,61.640741 -215.80586,59.274007 -213.36614,56.907274 -178.44379,71.861352 -175.07889,71.380653 -171.71399,70.899955 -142.37564,46.765819 -139.37083,48.354767 -136.36602,49.943714 -139.79659,87.777907 -138.29961,90.829576 -136.80263,93.881245 -104.78365,114.32581 -105.36629,117.67457 -105.94893,121.02332 -142.99149,129.45206 -145.43121,131.8188 z"
       transform="matrix(0.158788,-0.09167629,0.09167629,0.158788,520.41722,628.60257)"
       inkscape:transform-center-x="2.0342995"
       inkscape:transform-center-y="-1.7228949" />
    <text
       xml:space="preserve"
       style="font-size:12px;font-style:normal;font-variant:normal;font-weight:normal;font-stretch:normal;text-align:center;line-height:125%;letter-spacing:0px;word-spacing:0px;text-anchor:middle;fill:#000000;fill-opacity:1;stroke:none;font-family:Arial;-inkscape-font-specification:Arial"
       x="677.70978"
       y="186.08435"
       id="text4152"
       sodipodi:linespacing="125%"
       transform="matrix(0.96592583,0.25881905,-0.25881905,0.96592583,0,0)"><tspan
         sodipodi:role="line"
         id="tspan4154"
         x="677.70978"
         y="186.08435">MARCH</tspan></text>
    <text
       xml:space="preserve"
       style="font-size:12px;font-style:normal;font-variant:normal;font-weight:normal;font-stretch:normal;line-height:125%;letter-spacing:0px;word-spacing:0px;fill:#000000;fill-opacity:1;stroke:none;font-family:Arial;-inkscape-font-specification:Arial"
       x="845.76593"
       y="-213.47864"
       id="text4156"
       sodipodi:linespacing="125%"
       transform="matrix(0.70710678,0.70710678,-0.70710678,0.70710678,0,0)"><tspan
         sodipodi:role="line"
         id="tspan4158"
         x="845.76593"
         y="-213.47864"
         style="text-align:center;text-anchor:middle">APRIL</tspan></text>
    <text
       xml:space="preserve"
       style="font-size:12px;font-style:normal;font-variant:normal;font-weight:normal;font-stretch:normal;text-align:center;line-height:125%;letter-spacing:0px;word-spacing:0px;text-anchor:middle;fill:#000000;fill-opacity:1;stroke:none;font-family:Arial;-inkscape-font-specification:Arial"
       x="784.35803"
       y="-647.83142"
       id="text4160"
       sodipodi:linespacing="125%"
       transform="matrix(0.25881905,0.96592583,-0.96592583,0.25881905,0,0)"><tspan
         sodipodi:role="line"
         id="tspan4162"
         x="784.35803"
         y="-647.83142">MAY</tspan></text>
    <text
       xml:space="preserve"
       style="font-size:12px;font-style:normal;font-variant:normal;font-weight:normal;font-stretch:normal;text-align:center;line-height:125%;letter-spacing:0px;word-spacing:0px;text-anchor:middle;fill:#000000;fill-opacity:1;stroke:none;font-family:Arial;-inkscape-font-specification:Arial"
       x="517.44434"
       y="-994.54553"
       id="text4164"
       sodipodi:linespacing="125%"
       transform="matrix(-0.25881905,0.96592583,-0.96592583,-0.25881905,0,0)"><tspan
         sodipodi:role="line"
         id="tspan4166"
         x="517.44434"
         y="-994.54553">JUNE</tspan></text>
    <text
       xml:space="preserve"
       style="font-size:12px;font-style:normal;font-variant:normal;font-weight:normal;font-stretch:normal;text-align:center;line-height:125%;letter-spacing:0px;word-spacing:0px;text-anchor:middle;fill:#000000;fill-opacity:1;stroke:none;font-family:Arial;-inkscape-font-specification:Arial"
       x="114.2629"
       y="-1168.9543"
       id="text4168"
       sodipodi:linespacing="125%"
       transform="matrix(-0.70710678,0.70710678,-0.70710678,-0.70710678,0,0)"><tspan
         sodipodi:role="line"
         id="tspan4170"
         x="114.2629"
         y="-1168.9543">JULY</tspan></text>
    <text
       xml:space="preserve"
       style="font-size:12px;font-style:normal;font-variant:normal;font-weight:normal;font-stretch:normal;text-align:center;line-height:125%;letter-spacing:0px;word-spacing:0px;text-anchor:middle;fill:#000000;fill-opacity:1;stroke:none;font-family:Arial;-inkscape-font-specification:Arial"
       x="-327.32697"
       y="-1119.869"
       id="text4172"
       sodipodi:linespacing="125%"
       transform="matrix(-0.96592583,0.25881905,-0.25881905,-0.96592583,0,0)"><tspan
         sodipodi:role="line"
         id="tspan4174"
         x="-327.32697"
         y="-1119.869">AUGUST</tspan></text>
    <text
       xml:space="preserve"
       style="font-size:12px;font-style:normal;font-variant:normal;font-weight:normal;font-stretch:normal;text-align:center;line-height:125%;letter-spacing:0px;word-spacing:0px;text-anchor:middle;fill:#000000;fill-opacity:1;stroke:none;font-family:Arial;-inkscape-font-specification:Arial"
       x="-677.65979"
       y="-869.04852"
       id="text4176"
       sodipodi:linespacing="125%"
       transform="matrix(-0.96592583,-0.25881905,0.25881905,-0.96592583,0,0)"><tspan
         sodipodi:role="line"
         id="tspan4178"
         x="-677.65979"
         y="-869.04852">SEPTEMBER</tspan></text>
    <text
       xml:space="preserve"
       style="font-size:12px;font-style:normal;font-variant:normal;font-weight:normal;font-stretch:normal;text-align:center;line-height:125%;letter-spacing:0px;word-spacing:0px;text-anchor:middle;fill:#000000;fill-opacity:1;stroke:none;font-family:Arial;-inkscape-font-specification:Arial"
       x="-849.65631"
       y="-396.70129"
       id="text4180"
       sodipodi:linespacing="125%"
       transform="matrix(-0.70710678,-0.70710678,0.70710678,-0.70710678,0,0)"><tspan
         sodipodi:role="line"
         id="tspan4182"
         x="-849.65631"
         y="-396.70129">OCTOBER</tspan></text>
    <text
       xml:space="preserve"
       style="font-size:12px;font-style:normal;font-variant:normal;font-weight:normal;font-stretch:normal;text-align:center;line-height:125%;letter-spacing:0px;word-spacing:0px;text-anchor:middle;fill:#000000;fill-opacity:1;stroke:none;font-family:Arial;-inkscape-font-specification:Arial"
       x="-790.92145"
       y="25.589447"
       id="text4184"
       sodipodi:linespacing="125%"
       transform="matrix(-0.25881905,-0.96592583,0.96592583,-0.25881905,0,0)"><tspan
         sodipodi:role="line"
         id="tspan4186"
         x="-790.92145"
         y="25.589447">NOVEMBER</tspan></text>
    <text
       xml:space="preserve"
       style="font-size:12px;font-style:normal;font-variant:normal;font-weight:normal;font-stretch:normal;text-align:center;line-height:125%;letter-spacing:0px;word-spacing:0px;text-anchor:middle;fill:#000000;fill-opacity:1;stroke:none;font-family:Arial;-inkscape-font-specification:Arial"
       x="-519.18317"
       y="356.62317"
       id="text4188"
       sodipodi:linespacing="125%"
       transform="matrix(0.25881905,-0.96592583,0.96592583,0.25881905,0,0)"><tspan
         sodipodi:role="line"
         id="tspan4190"
         x="-519.18317"
         y="356.62317">DECEMBER</tspan></text>
    <text
       xml:space="preserve"
       style="font-size:12px;font-style:normal;font-variant:normal;font-weight:normal;font-stretch:normal;text-align:center;line-height:125%;letter-spacing:0px;word-spacing:0px;text-anchor:middle;fill:#000000;fill-opacity:1;stroke:none;font-family:Arial;-inkscape-font-specification:Arial"
       x="-113.5892"
       y="512.93903"
       id="text4192"
       sodipodi:linespacing="125%"
       transform="matrix(0.70710678,-0.70710678,0.70710678,0.70710678,0,0)"><tspan
         sodipodi:role="line"
         id="tspan4194"
         x="-113.5892"
         y="512.93903">JANUARY</tspan></text>
    <text
       xml:space="preserve"
       style="font-size:12px;font-style:normal;font-variant:normal;font-weight:normal;font-stretch:normal;text-align:center;line-height:125%;letter-spacing:0px;word-spacing:0px;text-anchor:middle;fill:#000000;fill-opacity:1;stroke:none;font-family:Arial;-inkscape-font-specification:Arial"
       x="324.38217"
       y="452.99786"
       id="text4196"
       sodipodi:linespacing="125%"
       transform="matrix(0.96592583,-0.25881905,0.25881905,0.96592583,0,0)"><tspan
         sodipodi:role="line"
         id="tspan4198"
         x="324.38217"
         y="452.99786">FEBRUARY</tspan></text>
  </g>
</svg>
