<?xml version="1.0" encoding="UTF-8" standalone="no"?>
<!-- Created with Inkscape (http://www.inkscape.org/) -->

<svg
   xmlns:dc="http://purl.org/dc/elements/1.1/"
   xmlns:cc="http://creativecommons.org/ns#"
   xmlns:rdf="http://www.w3.org/1999/02/22-rdf-syntax-ns#"
   xmlns:svg="http://www.w3.org/2000/svg"
   xmlns="http://www.w3.org/2000/svg"
   xmlns:xlink="http://www.w3.org/1999/xlink"
   xmlns:sodipodi="http://sodipodi.sourceforge.net/DTD/sodipodi-0.dtd"
   xmlns:inkscape="http://www.inkscape.org/namespaces/inkscape"
   width="990"
   height="765"
   id="svg2"
   version="1.1"
   inkscape:version="0.48.2 r9819"
   sodipodi:docname="gameboard.svg">
  <defs
     id="defs4" />
  <sodipodi:namedview
     id="base"
     pagecolor="#ffffff"
     bordercolor="#666666"
     borderopacity="1.0"
     inkscape:pageopacity="0.0"
     inkscape:pageshadow="2"
     inkscape:zoom="0.35355339"
     inkscape:cx="128.47007"
     inkscape:cy="50.389398"
     inkscape:document-units="in"
     inkscape:current-layer="layer1"
     showgrid="true"
     units="in"
     showguides="true"
     inkscape:guide-bbox="true"
     inkscape:window-width="1383"
     inkscape:window-height="856"
     inkscape:window-x="95"
     inkscape:window-y="0"
     inkscape:window-maximized="0"
     inkscape:snap-global="false">
    <inkscape:grid
       type="xygrid"
       id="grid2985"
       empspacing="4"
       visible="true"
       enabled="true"
       snapvisiblegridlinesonly="true"
       units="in"
       spacingx="0.25in"
       spacingy="0.25in" />
  </sodipodi:namedview>
  <metadata
     id="metadata7">
    <rdf:RDF>
      <cc:Work
         rdf:about="">
        <dc:format>image/svg+xml</dc:format>
        <dc:type
           rdf:resource="http://purl.org/dc/dcmitype/StillImage" />
        <dc:title />
      </cc:Work>
    </rdf:RDF>
  </metadata>
  <g
     inkscape:label="Layer 1"
     inkscape:groupmode="layer"
     id="layer1"
     transform="translate(0,-287.362)">
    <path
       sodipodi:type="spiral"
       style="fill:none;stroke:#333333;stroke-width:14.39999962;stroke-linecap:butt;stroke-linejoin:miter;stroke-miterlimit:4;stroke-opacity:1;stroke-dasharray:none"
       id="path7407"
       sodipodi:cx="411.53613"
       sodipodi:cy="305.38058"
       sodipodi:expansion="0.73000002"
       sodipodi:revolution="2.8793344"
       sodipodi:radius="337.16086"
       sodipodi:argument="-18.695198"
       sodipodi:t0="0.079247981"
       d="M 410.62136,358.35105 C 370.79927,377.7688 329.15325,341.73162 320.63028,303.81068 307.18315,243.98077 356.25779,189.95381 413.67018,181.80745 490.48051,170.90869 557.27582,233.55595 564.8196,308.02772 574.17736,400.40689 498.56371,479.409 408.41055,486.36901 301.41265,494.62946 210.75886,406.67507 204.33582,301.80233 196.93123,180.90324 296.6868,79.075915 415.54674,73.144678 549.77314,66.446638 662.36655,177.5463 667.84488,309.80692 673.93695,456.88486 551.88346,579.89404 406.70806,584.95219 247.1831,590.5103 114.06297,457.84038 109.39746,300.16279 104.31937,128.54132 247.3104,-14.421423 417.13316,-18.717622 523.07843,-21.397841 625.56594,29.373291 689.08039,113.94748"
       transform="matrix(-0.70710677,0.70710679,-0.70710679,-0.70710677,985.84318,572.0507)" />
    <path
       style="fill:none;stroke:#000000;stroke-width:1px;stroke-linecap:butt;stroke-linejoin:miter;stroke-opacity:1"
       d="M 494,-135 496,947 496,947 496,947"
       id="path7409"
       inkscape:connector-curvature="0"
       transform="translate(0,287.362)"
       sodipodi:insensitive="true" />
    <path
       transform="matrix(-0.20331246,-0.75877361,-0.75877361,0.20331246,945.1102,709.26119)"
       d="M 225,157.5 A 22.5,22.5 0 1 1 180,157.5 22.5,22.5 0 1 1 225,157.5 z"
       sodipodi:ry="22.5"
       sodipodi:rx="22.5"
       sodipodi:cy="157.5"
       sodipodi:cx="202.5"
       id="path3819"
       style="fill:#ffffff;stroke:#000000;stroke-width:9;stroke-miterlimit:4;stroke-dasharray:none"
       sodipodi:type="arc" />
    <path
       sodipodi:type="arc"
       style="fill:#ffffff;stroke:#000000;stroke-width:9;stroke-miterlimit:4;stroke-dasharray:none"
       id="path3821"
       sodipodi:cx="202.5"
       sodipodi:cy="157.5"
       sodipodi:rx="22.5"
       sodipodi:ry="22.5"
       d="M 225,157.5 A 22.5,22.5 0 1 1 180,157.5 22.5,22.5 0 1 1 225,157.5 z"
       transform="matrix(-0.20331246,-0.75877361,-0.75877361,0.20331246,394.73226,858.64168)" />
    <path
       sodipodi:type="arc"
       style="fill:#ffffff;stroke:#000000;stroke-width:9;stroke-miterlimit:4;stroke-dasharray:none"
       id="path3823"
       sodipodi:cx="202.5"
       sodipodi:cy="157.5"
       sodipodi:rx="22.5"
       sodipodi:ry="22.5"
       d="M 225,157.5 A 22.5,22.5 0 1 1 180,157.5 22.5,22.5 0 1 1 225,157.5 z"
       transform="matrix(-0.55546052,-0.55546052,-0.55546052,0.55546052,911.0567,478.82002)" />
    <path
       transform="matrix(-0.20331242,0.75877361,0.75877361,0.20331242,136.91758,402.32306)"
       d="M 225,157.5 A 22.5,22.5 0 1 1 180,157.5 22.5,22.5 0 1 1 225,157.5 z"
       sodipodi:ry="22.5"
       sodipodi:rx="22.5"
       sodipodi:cy="157.5"
       sodipodi:cx="202.5"
       id="path3827"
       style="fill:#ffffff;stroke:#000000;stroke-width:9;stroke-miterlimit:4;stroke-dasharray:none"
       sodipodi:type="arc" />
    <path
       sodipodi:type="arc"
       style="fill:#ffffff;stroke:#000000;stroke-width:9;stroke-miterlimit:4;stroke-dasharray:none"
       id="path3829"
       sodipodi:cx="202.5"
       sodipodi:cy="157.5"
       sodipodi:rx="22.5"
       sodipodi:ry="22.5"
       d="M 225,157.5 A 22.5,22.5 0 1 1 180,157.5 22.5,22.5 0 1 1 225,157.5 z"
       transform="matrix(-0.20331242,0.75877361,0.75877361,0.20331242,703.4753,553.14267)" />
    <path
       transform="matrix(-0.75877361,-0.20331242,-0.20331242,0.75877361,764.28399,290.07815)"
       d="M 225,157.5 A 22.5,22.5 0 1 1 180,157.5 22.5,22.5 0 1 1 225,157.5 z"
       sodipodi:ry="22.5"
       sodipodi:rx="22.5"
       sodipodi:cy="157.5"
       sodipodi:cx="202.5"
       id="path3835"
       style="fill:#ffffff;stroke:#000000;stroke-width:9;stroke-miterlimit:4;stroke-dasharray:none"
       sodipodi:type="arc" />
    <path
       sodipodi:type="arc"
       style="fill:#ffffff;stroke:#000000;stroke-width:9;stroke-miterlimit:4;stroke-dasharray:none"
       id="path3837"
       sodipodi:cx="202.5"
       sodipodi:cy="157.5"
       sodipodi:rx="22.5"
       sodipodi:ry="22.5"
       d="M 225,157.5 A 22.5,22.5 0 1 1 180,157.5 22.5,22.5 0 1 1 225,157.5 z"
       transform="matrix(-0.75877361,-0.20331242,-0.20331242,0.75877361,601.15266,898.88792)" />
    <path
       transform="matrix(0.55546087,0.55546086,0.55546086,-0.55546087,362.17836,577.77524)"
       d="M 225,157.5 A 22.5,22.5 0 1 1 180,157.5 22.5,22.5 0 1 1 225,157.5 z"
       sodipodi:ry="22.5"
       sodipodi:rx="22.5"
       sodipodi:cy="157.5"
       sodipodi:cx="202.5"
       id="path3861"
       style="fill:#ffffff;stroke:#000000;stroke-width:9;stroke-miterlimit:4;stroke-dasharray:none"
       sodipodi:type="arc" />
    <text
       xml:space="preserve"
       style="font-size:64px;font-style:normal;font-variant:normal;font-weight:normal;font-stretch:normal;line-height:125%;letter-spacing:0px;word-spacing:0px;fill:#000000;fill-opacity:1;stroke:none;font-family:Webdings;-inkscape-font-specification:Webdings"
       x="-1069.5912"
       y="1.7105989"
       id="text3896"
       sodipodi:linespacing="125%"
       transform="matrix(0,-1,1,0,0,0)"><tspan
         sodipodi:role="line"
         id="tspan3898"
         x="-1069.5912"
         y="1.7105989" /><tspan
         sodipodi:role="line"
         id="tspan3900"
         x="-1069.5912"
         y="81.710602" /></text>
    <text
       xml:space="preserve"
       style="font-size:72px;font-style:normal;font-variant:normal;font-weight:normal;font-stretch:normal;line-height:125%;letter-spacing:0px;word-spacing:0px;fill:#000000;fill-opacity:1;stroke:none;font-family:Webdings;-inkscape-font-specification:Webdings"
       x="-1297.4574"
       y="716.83807"
       id="text3912"
       sodipodi:linespacing="125%"
       transform="matrix(0,-1,1,0,0,0)"><tspan
         sodipodi:role="line"
         id="tspan3914"
         x="-1297.4574"
         y="716.83807" /></text>
    <path
       inkscape:connector-curvature="0"
       id="path4019"
       style="font-size:72px;font-style:normal;font-variant:normal;font-weight:normal;font-stretch:normal;line-height:125%;letter-spacing:0px;word-spacing:0px;fill:#000000;fill-opacity:1;stroke:none;font-family:Wingdings;-inkscape-font-specification:Wingdings"
       d="M 762.95345,902.87833 784.76517,892.7244 782.71988,916.69984 805.95076,922.92935 788.94159,939.94929 802.73537,959.72079 778.77595,961.82898 776.58727,985.76858 756.89411,971.96189 739.87934,988.9883 733.58602,965.71987 709.62954,967.82697 719.77473,946.0186 700.07589,932.21798 721.90991,921.99227 715.68859,898.7417 738.9254,904.9661 749.13827,883.1787 762.95345,902.87833 M 761.99046,906.46898 C 753.58796,904.21819 745.63736,905.2574 738.13978,909.58579 730.58165,913.9496 725.67453,920.33458 723.42351,928.73573 721.17241,937.13692 722.23605,945.09302 726.61105,952.60619 730.92624,960.15434 737.28842,965.05145 745.69046,967.30223 754.09176,969.55394 762.07493,968.49434 769.62838,964.13606 777.1312,959.80284 782.00357,953.44017 784.25695,945.03578 786.5081,936.63375 785.45091,928.65355 781.09008,921.09278 776.70957,913.58579 770.34601,908.70728 761.99046,906.46898" />
    <path
       inkscape:connector-curvature="0"
       id="path4021"
       style="font-size:72px;font-style:normal;font-variant:normal;font-weight:normal;font-stretch:normal;line-height:125%;letter-spacing:0px;word-spacing:0px;fill:#000000;fill-opacity:1;stroke:none;font-family:Wingdings;-inkscape-font-specification:Wingdings"
       d="M 1106.7753,1308.2146 C 1111.5565,1307.0895 1115.3652,1305.8123 1118.2011,1304.3826 1121.037,1302.9529 1124.1073,1300.7731 1127.412,1297.8435 L 1128.8181,1296.5778 C 1133.0838,1292.7575 1137.3495,1290.8474 1141.6151,1290.8474 1146.3261,1290.8474 1150.369,1292.5583 1153.7439,1295.9801 1157.119,1299.3786 1158.8065,1303.4568 1158.8065,1308.2145 1158.8066,1312.949 1157.119,1317.027 1153.744,1320.4489 1150.369,1323.8473 1146.3261,1325.5466 1141.6151,1325.5466 1137.3495,1325.5465 1133.0839,1323.6364 1128.8182,1319.8161 L 1127.412,1318.5506 C 1124.1073,1315.6208 1121.037,1313.4411 1118.201,1312.0114 1115.3651,1310.5818 1111.5566,1309.3161 1106.7753,1308.2146" />
    <path
       inkscape:connector-curvature="0"
       id="path4023"
       style="font-size:72px;font-style:normal;font-variant:normal;font-weight:normal;font-stretch:normal;line-height:125%;letter-spacing:0px;word-spacing:0px;fill:#000000;fill-opacity:1;stroke:none;font-family:Wingdings;-inkscape-font-specification:Wingdings"
       d="M 190.7126,429.10274 200.85501,418.96091 186.96909,415.17373 188.14418,410.77707 204.59832,415.2174 220.13777,399.67718 198.89563,394.01838 186.88199,406.0323 183.617,402.76844 193.80295,392.58225 179.91759,388.882 181.09273,384.48588 194.97809,388.1856 191.23493,374.34316 195.67485,373.12425 200.07133,389.53515 221.31357,395.2811 215.56746,374.03899 199.2006,369.59894 200.37617,365.20222 214.2179,368.94554 210.51842,355.05996 214.91492,353.88436 218.65778,367.72663 228.80044,357.58472 232.06495,360.84941 220.05158,372.8631 225.71018,394.10538 241.29348,378.52255 236.85378,362.15543 241.29367,360.93653 244.99365,374.82205 255.13572,364.68002 258.35663,367.90103 248.21499,378.04355 262.10026,381.74308 260.88163,386.18317 244.51444,381.74281 228.93144,397.32668 250.17326,402.98566 262.1876,390.97144 265.40875,394.19281 255.26624,404.3346 269.10829,408.07812 267.97657,412.51893 254.09089,408.81848 257.83441,422.66064 253.43795,423.836 248.95461,407.42554 227.75566,401.72263 233.45807,422.92196 249.86834,427.31825 248.69307,431.80208 234.85109,428.05853 238.55124,441.94368 234.15436,443.11939 230.41095,429.19039 220.22551,439.37595 217.00433,436.15488 229.01765,424.14095 223.35875,402.89859 207.81928,418.43818 212.25986,434.89258 207.86287,436.06737 204.07621,422.18157 193.9337,432.32455 190.7126,429.10274" />
    <path
       inkscape:connector-curvature="0"
       id="path4025"
       style="font-size:72px;font-style:normal;font-variant:normal;font-weight:normal;font-stretch:normal;line-height:125%;letter-spacing:0px;word-spacing:0px;fill:#000000;fill-opacity:1;stroke:none;font-family:Wingdings;-inkscape-font-specification:Wingdings"
       d="M 765.52804,368.93628 C 766.54173,366.94506 767.82712,365.44242 769.38368,364.42827 770.94083,363.41447 772.7514,362.90744 774.81514,362.90784 778.36333,362.90751 781.36899,364.82711 783.83065,368.66486 L 784.70001,370.02272 C 785.89446,371.86931 787.5603,373.02763 789.69654,373.49881 L 791.27134,373.82424 C 793.76946,374.36789 795.81551,375.59855 797.40894,377.51747 799.00153,379.43623 799.79823,381.62752 799.79879,384.08928 799.79816,386.40669 798.56731,388.90492 796.10561,391.58431 799.21943,392.23624 801.57257,393.41294 803.16577,395.11493 804.72304,396.8525 805.50092,399.13353 805.50115,401.95762 805.5011,404.0214 804.70452,406.04926 803.11188,408.04121 L 801.80806,409.61558 C 800.10589,411.71566 799.25512,413.32693 799.25521,414.44926 799.2555,414.84793 799.2917,415.40922 799.36396,416.13359 L 799.47267,418.14237 C 799.50879,418.61378 799.5264,419.06582 799.52699,419.5004 799.52692,421.99872 798.49515,424.2798 796.43115,426.34358 794.4038,428.4076 792.15855,429.43949 789.69639,429.4393 788.03073,429.4399 786.0936,428.87807 783.88522,427.75544 784.17447,428.91445 784.31949,429.76523 784.31999,430.30869 784.31997,432.80706 783.30538,435.03355 781.2781,436.989 779.25087,438.94374 776.93312,439.92147 774.3266,439.92165 773.09491,439.92169 771.75558,439.64968 770.30712,439.10707 L 768.46062,438.45526 C 766.75862,437.76711 765.61847,437.42371 765.03927,437.4235 764.20637,437.42368 763.10145,437.71291 761.72616,438.29204 L 760.20511,438.99856 C 758.79322,439.61379 757.39922,439.92126 756.02379,439.92191 753.37989,439.9216 751.02648,438.94377 748.96248,436.98896 746.86278,435.0338 745.81252,432.8073 745.81231,430.30881 745.81253,429.58461 745.9032,428.57084 746.08426,427.26727 745.28786,427.81004 744.43665,428.20873 743.53167,428.46202 742.62632,428.71542 741.66673,428.84208 740.65312,428.84214 737.79299,428.84241 735.40257,427.75578 733.48393,425.5833 731.56485,423.41117 730.69602,420.82218 730.8773,417.81702 L 730.98565,415.53582 C 731.05802,414.48546 731.09443,413.85232 731.09407,413.63502 731.0944,412.44028 730.38802,411.02784 728.97581,409.39883 L 727.99847,408.31214 C 726.07907,406.13984 725.11985,403.913 725.11975,401.63178 725.12017,398.95268 725.88048,396.72617 727.40095,394.95167 728.88535,393.17728 731.14817,391.87402 734.19035,391.04138 732.12638,388.54241 731.09415,386.09895 731.09424,383.70959 731.09414,378.53102 733.77341,375.23687 739.13255,373.82416 L 740.76164,373.39021 C 743.44135,372.70222 745.28737,371.43504 746.30133,369.58844 L 747.22443,367.95891 C 749.14405,364.55519 752.113,362.85317 756.13182,362.85375 757.94253,362.8536 759.62608,363.36019 761.18324,364.37408 762.73964,365.38783 764.18803,366.90853 765.52804,368.93628 M 764.1158,384.52423 C 764.29655,382.96709 764.38748,381.59081 764.38758,380.39595 764.38723,375.47194 763.69946,371.76068 762.32344,369.26178 760.94733,366.80029 758.90211,365.56927 756.18618,365.56869 753.47048,365.56897 751.19014,366.99951 749.34272,369.85951 L 748.25679,371.48962 C 746.73609,373.84269 744.50899,375.36266 741.57645,376.05132 L 739.83876,376.43115 C 735.78344,377.37311 733.75549,379.835 733.75532,383.81773 733.75564,385.99047 735.22186,388.48904 738.15449,391.31271 742.82543,391.89181 746.70011,393.03254 749.77756,394.73406 L 748.96217,397.23255 C 743.71273,394.95167 739.33158,393.81109 735.819,393.81117 733.14017,393.81085 731.14832,394.44493 729.845,395.71208 728.50571,396.97959 727.8355,398.88043 727.83573,401.41466 727.83539,403.04433 728.54153,404.69121 729.95372,406.35728 L 731.25665,407.87784 C 732.99507,409.94183 733.86404,412.09602 733.86377,414.34091 733.86376,414.73918 733.84634,415.15545 733.80953,415.59036 L 733.70061,417.43657 C 733.66485,417.83531 733.6472,418.26943 733.64695,418.7402 733.64676,420.84 734.31695,422.61443 735.65599,424.06295 737.03254,425.51127 738.69814,426.23513 740.65271,426.2352 741.70352,426.23549 742.80763,426.01763 743.96604,425.58357 745.08872,425.18484 746.26512,424.56964 747.49672,423.73692 749.52357,419.86239 751.73286,416.64012 754.122,414.06906 L 756.29454,415.69879 C 751.18948,421.60057 748.63671,426.45205 748.63681,430.25449 748.6372,432.13684 749.36083,433.76635 750.8095,435.14249 752.25728,436.51818 753.99564,437.20625 756.02358,437.20622 756.85554,437.20614 757.9061,436.953 759.17324,436.44569 L 760.96526,435.73976 C 762.63072,435.05157 763.98903,434.70784 765.03921,434.70763 765.90789,434.7078 767.32051,435.10613 769.27529,435.90294 L 770.95909,436.55454 C 772.29908,437.06166 773.45721,437.31458 774.43452,437.31476 776.53473,437.31486 778.25494,436.5907 779.5943,435.14277 780.93438,433.69383 781.60416,431.84716 781.60378,429.60268 781.60423,428.58845 781.47725,427.24935 781.22391,425.58354 778.61701,423.01305 776.1729,419.80852 773.89181,415.96996 L 776.0646,414.44976 C 781.0608,422.66862 785.51481,426.77798 789.42512,426.77861 791.63365,426.77845 793.444,425.96313 794.85612,424.33382 796.30466,422.66891 796.97433,420.64097 796.86581,418.2516 L 796.75735,416.29592 C 796.72067,415.82557 796.70261,415.33669 796.70286,414.82994 796.70268,412.76606 797.68043,410.57505 799.63562,408.25821 L 800.88468,406.73713 C 802.22447,405.14425 802.89401,403.47908 802.89431,401.74042 802.89404,399.78553 802.09738,398.10202 800.50474,396.68952 798.91133,395.31404 796.53972,394.22757 793.38942,393.43107 790.31228,395.16856 786.45569,396.599 781.82136,397.72171 L 781.00662,395.1686 C 787.37935,393.32212 791.65154,391.63886 793.82448,390.1181 795.99677,388.59715 797.08301,386.53333 797.08284,383.92662 797.0826,379.90745 795.05508,377.44496 791.00054,376.54012 L 789.20744,376.10547 C 786.20204,375.41735 783.92152,373.8426 782.3646,371.38067 L 781.33217,369.75151 C 779.6307,367.03538 777.38629,365.67789 774.59806,365.6778 773.07724,365.67746 771.64703,366.20302 770.30746,367.25267 768.93135,368.33897 767.64633,369.95028 766.45108,372.08663 766.99403,374.62085 767.26531,377.40892 767.26579,380.45074 767.26548,381.71781 767.13925,383.07518 766.88545,384.52396 L 764.1158,384.52423 M 765.25652,392.6166 766.45085,389.73785 768.89476,390.28059 768.78618,393.32215 772.42504,389.14004 774.48956,390.7155 771.77318,395.54921 774.7065,394.51686 775.95519,396.85246 773.62058,398.80779 776.60729,398.91651 776.8793,401.41483 773.94569,402.22947 779.10579,404.40222 778.23671,406.90055 772.86011,405.65103 774.65246,408.25844 772.8596,410.10454 770.41586,408.42084 771.176,411.29964 768.73243,412.44004 767.21154,409.88778 766.72282,415.37274 764.00707,415.3729 763.57224,409.88755 761.72545,412.43984 759.2822,411.29933 760.09682,408.36654 757.65296,410.05045 755.9147,408.20349 757.81583,405.81434 752.33014,407.11785 751.6239,404.61899 756.62055,402.39263 753.68743,401.52375 754.01389,398.86217 756.9469,398.75332 754.61125,396.90704 755.85994,394.57145 758.73901,395.65774 755.69765,390.98714 757.92411,389.35789 761.56305,393.4309 761.61771,390.281 764.1158,389.79182 765.25652,392.6166 M 765.25648,393.37671 C 763.01127,393.37653 761.11074,394.15469 759.55297,395.71198 757.99661,397.26905 757.21815,399.16973 757.21816,401.41455 757.21784,403.65981 757.9964,405.5601 759.55332,407.11797 761.11023,408.67461 763.01122,409.45302 765.25627,409.45276 767.50146,409.45294 769.40198,408.67436 770.95906,407.11771 772.5163,405.56072 773.29475,403.65961 773.29393,401.41459 773.29474,399.16961 772.5341,397.26895 771.01337,395.71215 769.45646,394.1549 767.53743,393.37665 765.25648,393.37671 M 765.36524,398.04728 C 767.53748,398.04754 768.62363,399.1702 768.62335,401.41473 768.62395,403.62356 767.53769,404.72789 765.36465,404.72789 763.19252,404.72764 762.1066,403.62358 762.10605,401.41485 762.1058,399.1698 763.19216,398.04726 765.36524,398.04728" />
    <text
       xml:space="preserve"
       style="font-size:72px;font-style:normal;font-variant:normal;font-weight:normal;font-stretch:normal;line-height:125%;letter-spacing:0px;word-spacing:0px;fill:#000000;fill-opacity:1;stroke:none;font-family:Wingdings;-inkscape-font-specification:Wingdings"
       x="-1581.2153"
       y="155.05453"
       id="text3920"
       sodipodi:linespacing="125%"
       transform="matrix(0,-1,1,0,0,0)"><tspan
         sodipodi:role="line"
         id="tspan3922"
         x="-1581.2153"
         y="155.05453" /></text>
    <path
       inkscape:connector-curvature="0"
       style="fill:#000000"
       d="M 192.88261,836.44847 C 193.06562,836.44605 193.87934,836.79494 194.6933,837.21406 196.31726,838.05807 196.13233,837.98106 205.57468,841.79257 209.21275,843.26463 212.51876,844.79069 212.92027,845.19134 214.16335,846.43955 214.40957,846.02092 214.04753,843.27932 213.25431,837.25024 213.26602,836.52943 214.14199,836.19697 214.62941,836.00781 215.30043,836.29701 215.70094,836.85196 216.08503,837.39557 216.95019,838.46875 217.62131,839.23717 218.65405,840.412 220.39988,843.21838 223.53075,848.74646 224.91363,851.18888 227.96789,855.39855 228.35861,855.39298 228.84064,855.39904 229.00511,851.92485 228.80965,845.78421 228.71496,842.73804 228.8684,841.46653 229.33814,841.46235 230.39298,841.46462 233.79247,843.21231 233.79143,843.75429 233.79115,844.02921 234.30612,844.25386 234.94006,844.24843 235.56951,844.25209 235.94791,844.02872 235.77862,843.75223 235.38845,843.11614 236.77027,842.56401 237.51972,843.05059 238.36735,843.60165 239.17376,845.41117 239.58313,847.66399 239.78189,848.77983 240.58761,850.38063 241.36825,851.22764 243.04713,853.03868 243.56826,854.27714 244.99606,859.85279 246.22617,864.66809 248.27738,869.30679 249.18079,869.32202 249.54726,869.32677 249.9366,867.77949 250.12853,865.56666 250.30779,863.49946 250.57164,861.30835 250.71795,860.68958 250.86316,860.07874 251.0021,859.25309 251.02509,858.86113 251.04815,858.46981 251.50545,857.99032 252.04247,857.79031 253.58326,857.22261 253.83567,856.48112 253.8445,852.50752 253.85082,850.45306 254.12278,848.613 254.45372,848.40742 255.42571,847.80508 257.71787,850.40655 258.73169,853.26111 259.36591,855.05132 260.02608,855.96465 260.76166,856.07086 261.92442,856.2458 263.77825,858.93626 263.84531,860.55494 263.88385,861.49034 264.46862,861.76268 265.97443,861.57316 266.75878,861.46779 266.86555,862.50016 266.77861,869.29678 266.72122,873.77575 266.4324,875.12179 264.65601,879.16968 264.23269,880.13186 263.88504,881.53809 263.8858,882.2853 263.88646,883.79239 265.56437,886.0487 266.6864,886.04729 267.44019,886.05183 271.27784,883.34449 271.59475,882.58912 271.69854,882.3446 272.13723,882.14802 272.57047,882.14725 273.00558,882.14551 273.36038,881.91554 273.35978,881.63496 273.36029,881.35456 274.33298,880.15914 275.52161,878.99 276.71178,877.81132 277.85904,876.04108 278.07377,875.04086 278.41657,873.45282 279.41747,872.49661 279.53339,873.65001 279.55646,873.88053 279.6614,874.44112 279.7636,874.90508 281.33515,881.90836 281.42887,892.6569 279.93008,894.15355 279.74465,894.34207 279.78638,895.17827 280.02609,896.01023 280.49139,897.62459 280.26867,901.25863 279.51438,904.44315 278.88784,907.0789 277.06772,911.92229 276.62342,912.13407 276.4271,912.22453 276.89273,913.974 277.65543,916.03117 278.41843,918.08847 279.18073,920.26844 279.34872,920.8832 279.51413,921.49408 279.84325,922.24662 280.07775,922.54988 280.7139,923.38244 282.79827,929.52149 282.44663,929.51774 282.27818,929.51889 282.46345,929.91088 282.85844,930.38668 283.79788,931.51744 283.92786,942.74572 283.02389,944.62025 282.66982,945.35404 282.22833,946.42573 282.04566,946.99314 281.78205,947.80616 281.38227,947.9489 280.18809,947.64791 279.34887,947.44085 278.47298,946.97329 278.23588,946.61355 277.76304,945.8945 278.1436,942.50473 279.01153,939.69941 279.31876,938.71507 279.41271,937.64523 279.22197,937.33456 279.03117,937.02439 278.75764,935.70254 278.61552,934.40229 277.91369,927.89257 275.47191,921.95839 272.63461,919.83572 271.26095,918.81209 271.21246,918.81346 270.04223,919.89967 268.92077,920.947 261.60924,924.79818 259.14812,925.63966 258.53508,925.85138 257.08508,926.43087 255.92621,926.93162 253.58581,927.94985 252.18374,928.10196 252.18188,927.35591 252.18238,927.0804 250.49057,926.17588 248.41994,925.34868 246.35296,924.51236 244.26489,923.63488 243.78485,923.38982 241.48762,922.22579 235.05781,920.96624 228.27537,920.34104 226.6212,920.18935 225.15216,919.94993 225.00792,919.80969 224.47288,919.27434 227.67261,916.91043 231.47954,915.03044 235.3247,913.13329 236.32719,912.24319 234.62571,912.24719 233.07544,912.24088 233.77734,911.35155 236.15991,910.29289 238.42904,909.28582 238.46856,909.22646 237.13539,908.84467 236.36871,908.63109 233.66388,908.42544 231.11933,908.40119 225.17738,908.32398 214.49992,906.27326 212.9208,904.90061 212.62808,904.6495 211.93977,904.43976 211.38896,904.43913 210.14918,904.43804 210.01124,902.31948 211.22065,901.85601 211.67958,901.6823 212.05633,901.37246 212.05719,901.16751 212.0572,900.7928 206.28169,899.0635 203.59927,898.63683 201.68202,898.33344 197.66546,896.46192 195.96694,895.08855 L 194.64268,894.02636 197.35874,893.69967 C 200.36314,893.34687 207.32693,891.2335 208.85526,890.21625 209.77378,889.60217 209.74563,889.43262 208.43787,887.5005 207.66797,886.37279 207.04096,885.32553 207.03965,885.18769 207.03884,884.58432 209.93126,885.02051 212.15002,885.95968 214.4646,886.94522 216.71087,887.43671 222.01309,888.10439 224.13309,888.37065 224.38076,888.29618 223.9447,887.51474 222.10634,884.23004 216.6221,880.49774 209.2708,877.53489 206.30204,876.33872 203.95965,875.15515 203.23189,874.47251 202.59359,873.86969 202.62519,873.52597 203.43624,872.29065 204.39346,870.82828 204.38367,870.80059 202.51694,869.25116 201.48015,868.38983 200.32654,867.68018 199.95275,867.67592 199.22679,867.6586 195.33667,863.98451 195.33937,863.31882 195.34045,863.09828 198.12079,862.88686 201.52104,862.84167 204.92116,862.7962 207.94698,862.51426 208.24775,862.21614 208.60337,861.86068 207.937,860.96589 206.32824,859.64554 204.96918,858.53959 203.66232,857.62788 203.42217,857.62559 203.18041,857.62371 202.24173,856.855 201.33628,855.90897 L 199.69156,854.18549 200.84825,852.9527 202.00358,851.72353 200.21926,849.51961 C 199.2371,848.30907 198.3006,847.19168 198.13634,847.03749 197.39388,846.34406 194.75759,842.57227 193.70993,840.702 192.61004,838.75172 192.16342,836.45023 192.88261,836.44847 z"
       id="path3998" />
    <path
       sodipodi:type="arc"
       style="fill:#ffffff;stroke:#000000;stroke-width:9.0947361;stroke-miterlimit:4;stroke-dasharray:none"
       id="path6595"
       sodipodi:cx="202.5"
       sodipodi:cy="157.5"
       sodipodi:rx="22.5"
       sodipodi:ry="22.5"
       d="M 225,157.5 A 22.5,22.5 0 1 1 180,157.5 22.5,22.5 0 1 1 225,157.5 z"
       transform="matrix(-0.75513262,-0.2023375,-0.2023375,0.75513262,738.10106,383.21279)" />
    <path
       transform="matrix(-0.75513262,-0.2023375,-0.2023375,0.75513262,624.73915,810.15396)"
       d="M 225,157.5 A 22.5,22.5 0 1 1 180,157.5 22.5,22.5 0 1 1 225,157.5 z"
       sodipodi:ry="22.5"
       sodipodi:rx="22.5"
       sodipodi:cy="157.5"
       sodipodi:cx="202.5"
       id="path6597"
       style="fill:#ffffff;stroke:#000000;stroke-width:9.0947361;stroke-miterlimit:4;stroke-dasharray:none"
       sodipodi:type="arc" />
    <path
       transform="matrix(-0.20232324,-0.75508068,-0.75508068,0.20232324,853.93209,732.89079)"
       d="M 225,157.5 A 22.5,22.5 0 1 1 180,157.5 22.5,22.5 0 1 1 225,157.5 z"
       sodipodi:ry="22.5"
       sodipodi:rx="22.5"
       sodipodi:cy="157.5"
       sodipodi:cx="202.5"
       id="path6607"
       style="fill:#ffffff;stroke:#000000;stroke-width:9.09536266;stroke-miterlimit:4;stroke-dasharray:none"
       sodipodi:type="arc" />
    <path
       sodipodi:type="arc"
       style="fill:#ffffff;stroke:#000000;stroke-width:9.23484707;stroke-miterlimit:4;stroke-dasharray:none"
       id="path6609"
       sodipodi:cx="202.5"
       sodipodi:cy="157.5"
       sodipodi:rx="22.5"
       sodipodi:ry="22.5"
       d="M 225,157.5 A 22.5,22.5 0 1 1 180,157.5 22.5,22.5 0 1 1 225,157.5 z"
       transform="matrix(-0.1992673,-0.74367584,-0.74367584,0.1992673,490.48179,827.07552)" />
    <g
       id="g7460"
       transform="matrix(0.70710679,0.70710678,-0.70710678,0.70710679,676.12462,-211.30827)">
      <path
         sodipodi:type="arc"
         style="fill:#ffffff;stroke:#000000;stroke-width:9;stroke-miterlimit:4;stroke-dasharray:none"
         id="path3825"
         sodipodi:cx="202.5"
         sodipodi:cy="157.5"
         sodipodi:rx="22.5"
         sodipodi:ry="22.5"
         d="M 225,157.5 A 22.5,22.5 0 1 1 180,157.5 22.5,22.5 0 1 1 225,157.5 z"
         transform="matrix(-0.7855398,0,0,0.7855398,654.1164,876.16021)" />
      <text
         transform="scale(-1,-1)"
         sodipodi:linespacing="125%"
         id="text6655"
         y="-992.46265"
         x="-495.35614"
         style="font-size:36.28705215px;font-style:normal;font-variant:normal;font-weight:normal;font-stretch:normal;text-align:center;line-height:125%;letter-spacing:0px;word-spacing:0px;text-anchor:middle;fill:#000000;fill-opacity:1;stroke:none;font-family:American Typewriter;-inkscape-font-specification:American Typewriter"
         xml:space="preserve"><tspan
           style="font-size:20px;font-style:normal;font-variant:normal;font-weight:normal;font-stretch:normal;text-align:center;text-anchor:middle;font-family:Arial;-inkscape-font-specification:Arial"
           y="-992.46265"
           x="-495.35614"
           id="tspan6657"
           sodipodi:role="line">O</tspan></text>
    </g>
    <text
       xml:space="preserve"
       style="font-size:20px;font-style:normal;font-variant:normal;font-weight:normal;font-stretch:normal;text-align:center;line-height:125%;letter-spacing:0px;word-spacing:0px;text-anchor:middle;fill:#000000;fill-opacity:1;stroke:none;font-family:Arial;-inkscape-font-specification:Arial"
       x="-654.48077"
       y="-829.2337"
       id="text6659"
       sodipodi:linespacing="125%"
       transform="matrix(-0.96592583,-0.25881905,0.25881905,-0.96592583,0,0)"><tspan
         sodipodi:role="line"
         id="tspan6661"
         x="-654.48077"
         y="-829.2337">S</tspan></text>
    <g
       id="g7445"
       transform="matrix(0.96592583,-0.25881905,0.25881905,0.96592583,-156.95436,126.97288)">
      <path
         transform="matrix(0.78554016,3.0603846e-7,3.0603846e-7,-0.78554016,335.36777,1120.3183)"
         d="M 225,157.5 C 225,169.92641 214.92641,180 202.5,180 190.07359,180 180,169.92641 180,157.5 180,145.07359 190.07359,135 202.5,135 214.92641,135 225,145.07359 225,157.5 z"
         sodipodi:ry="22.5"
         sodipodi:rx="22.5"
         sodipodi:cy="157.5"
         sodipodi:cx="202.5"
         id="path3815"
         style="fill:#ffffff;stroke:#000000;stroke-width:9;stroke-miterlimit:4;stroke-dasharray:none"
         sodipodi:type="arc" />
      <text
         transform="scale(-1,-1)"
         sodipodi:linespacing="125%"
         id="text6663"
         y="-989.43756"
         x="-494.37622"
         style="font-size:20px;font-style:normal;font-variant:normal;font-weight:normal;font-stretch:normal;text-align:center;line-height:125%;letter-spacing:0px;word-spacing:0px;text-anchor:middle;fill:#000000;fill-opacity:1;stroke:none;font-family:Arial;-inkscape-font-specification:Arial"
         xml:space="preserve"><tspan
           y="-989.43756"
           x="-494.37622"
           id="tspan6665"
           sodipodi:role="line">A</tspan></text>
    </g>
    <g
       id="g7435"
       transform="matrix(0.70710678,-0.70710679,0.70710679,0.70710678,-342.31667,531.71952)">
      <path
         transform="matrix(0.78553981,0,0,-0.78553981,338.7358,1109.6548)"
         d="M 225,157.5 C 225,169.92641 214.92641,180 202.5,180 190.07359,180 180,169.92641 180,157.5 180,145.07359 190.07359,135 202.5,135 214.92641,135 225,145.07359 225,157.5 z"
         sodipodi:ry="22.5"
         sodipodi:rx="22.5"
         sodipodi:cy="157.5"
         sodipodi:cx="202.5"
         id="path3831"
         style="fill:#ffffff;stroke:#000000;stroke-width:9;stroke-miterlimit:4;stroke-dasharray:none"
         sodipodi:type="arc" />
      <text
         transform="scale(-1,-1)"
         sodipodi:linespacing="125%"
         id="text6667"
         y="-978.40997"
         x="-497.68393"
         style="font-size:20px;font-style:normal;font-variant:normal;font-weight:normal;font-stretch:normal;text-align:center;line-height:125%;letter-spacing:0px;word-spacing:0px;text-anchor:middle;fill:#000000;fill-opacity:1;stroke:none;font-family:Arial;-inkscape-font-specification:Arial"
         xml:space="preserve"><tspan
           y="-978.40997"
           x="-497.68393"
           id="tspan6669"
           sodipodi:role="line">J</tspan></text>
    </g>
    <text
       xml:space="preserve"
       style="font-size:20px;font-style:normal;font-variant:normal;font-weight:normal;font-stretch:normal;text-align:center;line-height:125%;letter-spacing:0px;word-spacing:0px;text-anchor:middle;fill:#000000;fill-opacity:1;stroke:none;font-family:Arial;-inkscape-font-specification:Arial"
       x="511.37671"
       y="-939.93164"
       id="text6671"
       sodipodi:linespacing="125%"
       transform="matrix(-0.25881905,0.96592583,-0.96592583,-0.25881905,0,0)"><tspan
         sodipodi:role="line"
         id="tspan6673"
         x="511.37671"
         y="-939.93164">J</tspan></text>
    <text
       xml:space="preserve"
       style="font-size:20px;font-style:normal;font-variant:normal;font-weight:normal;font-stretch:normal;text-align:center;line-height:125%;letter-spacing:0px;word-spacing:0px;text-anchor:middle;fill:#000000;fill-opacity:1;stroke:none;font-family:Arial;-inkscape-font-specification:Arial"
       x="770.64435"
       y="-599.58954"
       id="text6675"
       sodipodi:linespacing="125%"
       transform="matrix(0.25881905,0.96592583,-0.96592583,0.25881905,0,0)"><tspan
         sodipodi:role="line"
         id="tspan6677"
         x="770.64435"
         y="-599.58954">M</tspan></text>
    <text
       xml:space="preserve"
       style="font-size:20px;font-style:normal;font-variant:normal;font-weight:normal;font-stretch:normal;text-align:center;line-height:125%;letter-spacing:0px;word-spacing:0px;text-anchor:middle;fill:#000000;fill-opacity:1;stroke:none;font-family:Arial;-inkscape-font-specification:Arial"
       x="824.22717"
       y="-174.8788"
       id="text6679"
       sodipodi:linespacing="125%"
       transform="matrix(0.70710678,0.70710678,-0.70710678,0.70710678,0,0)"><tspan
         sodipodi:role="line"
         id="tspan6681"
         x="824.22717"
         y="-174.8788">A</tspan></text>
    <text
       xml:space="preserve"
       style="font-size:20px;font-style:normal;font-variant:normal;font-weight:normal;font-stretch:normal;text-align:center;line-height:125%;letter-spacing:0px;word-spacing:0px;text-anchor:middle;fill:#000000;fill-opacity:1;stroke:none;font-family:Arial;-inkscape-font-specification:Arial"
       x="654.75531"
       y="213.14154"
       id="text6683"
       sodipodi:linespacing="125%"
       transform="matrix(0.96592583,0.25881905,-0.25881905,0.96592583,0,0)"><tspan
         sodipodi:role="line"
         id="tspan6685"
         x="654.75531"
         y="213.14154">M</tspan></text>
    <text
       xml:space="preserve"
       style="font-size:20px;font-style:normal;font-variant:normal;font-weight:normal;font-stretch:normal;text-align:center;line-height:125%;letter-spacing:0px;word-spacing:0px;text-anchor:middle;fill:#000000;fill-opacity:1;stroke:none;font-family:Arial;-inkscape-font-specification:Arial"
       x="-772.84741"
       y="42.476315"
       id="text6699"
       sodipodi:linespacing="125%"
       transform="matrix(-0.25881905,-0.96592583,0.96592583,-0.25881905,0,0)"><tspan
         sodipodi:role="line"
         id="tspan6701"
         x="-772.84741"
         y="42.476315">N</tspan></text>
    <text
       xml:space="preserve"
       style="font-size:20px;font-style:normal;font-variant:normal;font-weight:normal;font-stretch:normal;text-align:center;line-height:125%;letter-spacing:0px;word-spacing:0px;text-anchor:middle;fill:#000000;fill-opacity:1;stroke:none;font-family:Arial;-inkscape-font-specification:Arial"
       x="-512.37683"
       y="366.82855"
       id="text6703"
       sodipodi:linespacing="125%"
       transform="matrix(0.25881905,-0.96592583,0.96592583,0.25881905,0,0)"><tspan
         sodipodi:role="line"
         id="tspan6705"
         x="-512.37683"
         y="366.82855">D</tspan></text>
    <g
       id="g7411"
       transform="matrix(0.70710678,-0.70710679,0.70710679,0.70710678,-318.27502,552.93266)">
      <path
         sodipodi:type="arc"
         style="fill:#ffffff;stroke:#000000;stroke-width:9;stroke-miterlimit:4;stroke-dasharray:none"
         id="path3833"
         sodipodi:cx="202.5"
         sodipodi:cy="157.5"
         sodipodi:rx="22.5"
         sodipodi:ry="22.5"
         d="M 225,157.5 C 225,169.92641 214.92641,180 202.5,180 190.07359,180 180,169.92641 180,157.5 180,145.07359 190.07359,135 202.5,135 214.92641,135 225,145.07359 225,157.5 z"
         transform="matrix(0.78553981,0,0,-0.78553981,338.73581,473.37)" />
      <text
         sodipodi:linespacing="125%"
         id="text6707"
         y="356.32047"
         x="497.48523"
         style="font-size:20px;font-style:normal;font-variant:normal;font-weight:normal;font-stretch:normal;text-align:center;line-height:125%;letter-spacing:0px;word-spacing:0px;text-anchor:middle;fill:#000000;fill-opacity:1;stroke:none;font-family:Arial;-inkscape-font-specification:Arial"
         xml:space="preserve"><tspan
           y="356.32047"
           x="497.48523"
           id="tspan6709"
           sodipodi:role="line">J</tspan></text>
    </g>
    <g
       id="g7440"
       transform="matrix(0.96592583,-0.25881905,0.25881905,0.96592583,-152.26098,146.42069)">
      <path
         sodipodi:type="arc"
         style="fill:#ffffff;stroke:#000000;stroke-width:9;stroke-miterlimit:4;stroke-dasharray:none"
         id="path3817"
         sodipodi:cx="202.5"
         sodipodi:cy="157.5"
         sodipodi:rx="22.5"
         sodipodi:ry="22.5"
         d="M 225,157.5 C 225,169.92641 214.92641,180 202.5,180 190.07359,180 180,169.92641 180,157.5 180,145.07359 190.07359,135 202.5,135 214.92641,135 225,145.07359 225,157.5 z"
         transform="matrix(0.78554016,3.0603846e-7,3.0603846e-7,-0.78554016,335.36798,484.03189)" />
      <text
         sodipodi:linespacing="125%"
         id="text6711"
         y="367.46759"
         x="494.46432"
         style="font-size:20px;font-style:normal;font-variant:normal;font-weight:normal;font-stretch:normal;text-align:center;line-height:125%;letter-spacing:0px;word-spacing:0px;text-anchor:middle;fill:#000000;fill-opacity:1;stroke:none;font-family:Arial;-inkscape-font-specification:Arial"
         xml:space="preserve"><tspan
           y="367.46759"
           x="494.46432"
           id="tspan6713"
           sodipodi:role="line">F</tspan></text>
    </g>
    <path
       sodipodi:type="arc"
       style="fill:#ffffff;stroke:#000000;stroke-width:9;stroke-miterlimit:4;stroke-dasharray:none"
       id="path6731"
       sodipodi:cx="202.5"
       sodipodi:cy="157.5"
       sodipodi:rx="22.5"
       sodipodi:ry="22.5"
       d="M 225,157.5 A 22.5,22.5 0 1 1 180,157.5 22.5,22.5 0 1 1 225,157.5 z"
       transform="matrix(0.55546053,-0.55546052,-0.55546052,-0.55546053,325.26696,717.42987)" />
    <text
       sodipodi:linespacing="125%"
       id="text6715"
       y="620.2486"
       x="-118.55177"
       style="font-size:20px;font-style:normal;font-variant:normal;font-weight:normal;font-stretch:normal;text-align:center;line-height:125%;letter-spacing:0px;word-spacing:0px;text-anchor:middle;fill:#000000;fill-opacity:1;stroke:none;font-family:Arial;-inkscape-font-specification:Arial"
       xml:space="preserve"
       transform="matrix(0.70710678,-0.70710678,0.70710678,0.70710678,0,0)"><tspan
         y="620.2486"
         x="-118.55177"
         id="tspan6717"
         sodipodi:role="line">J</tspan></text>
    <g
       id="g7420"
       transform="matrix(0.70710678,-0.70710679,0.70710679,0.70710678,-308.37559,562.83223)">
      <path
         transform="matrix(0.78554029,0,0,-0.78554029,336.18978,685.46568)"
         d="M 225,157.5 A 22.5,22.5 0 1 1 180,157.5 22.5,22.5 0 1 1 225,157.5 z"
         sodipodi:ry="22.5"
         sodipodi:rx="22.5"
         sodipodi:cy="157.5"
         sodipodi:cx="202.5"
         id="path3865"
         style="fill:#ffffff;stroke:#000000;stroke-width:9;stroke-miterlimit:4;stroke-dasharray:none"
         sodipodi:type="arc" />
      <text
         sodipodi:linespacing="125%"
         id="text6719"
         y="568.32037"
         x="495.48523"
         style="font-size:20px;font-style:normal;font-variant:normal;font-weight:normal;font-stretch:normal;text-align:center;line-height:125%;letter-spacing:0px;word-spacing:0px;text-anchor:middle;fill:#000000;fill-opacity:1;stroke:none;font-family:Arial;-inkscape-font-specification:Arial"
         xml:space="preserve"><tspan
           y="568.32037"
           x="495.48523"
           id="tspan6721"
           sodipodi:role="line">J</tspan></text>
    </g>
    <text
       sodipodi:linespacing="125%"
       id="text6733"
       y="309.28537"
       x="654.33289"
       style="font-size:20px;font-style:normal;font-variant:normal;font-weight:normal;font-stretch:normal;text-align:center;line-height:125%;letter-spacing:0px;word-spacing:0px;text-anchor:middle;fill:#000000;fill-opacity:1;stroke:none;font-family:Arial;-inkscape-font-specification:Arial"
       xml:space="preserve"
       transform="matrix(0.96592583,0.25881905,-0.25881905,0.96592583,0,0)"><tspan
         y="309.28537"
         x="654.33289"
         id="tspan6735"
         sodipodi:role="line">M</tspan></text>
    <text
       sodipodi:linespacing="125%"
       id="text6737"
       y="35.76366"
       x="824.22717"
       style="font-size:20px;font-style:normal;font-variant:normal;font-weight:normal;font-stretch:normal;text-align:center;line-height:125%;letter-spacing:0px;word-spacing:0px;text-anchor:middle;fill:#000000;fill-opacity:1;stroke:none;font-family:Arial;-inkscape-font-specification:Arial"
       xml:space="preserve"
       transform="matrix(0.70710678,0.70710678,-0.70710678,0.70710678,0,0)"><tspan
         y="35.76366"
         x="824.22717"
         id="tspan6739"
         sodipodi:role="line">A</tspan></text>
    <text
       sodipodi:linespacing="125%"
       id="text6741"
       y="-505.08948"
       x="770.64435"
       style="font-size:20px;font-style:normal;font-variant:normal;font-weight:normal;font-stretch:normal;text-align:center;line-height:125%;letter-spacing:0px;word-spacing:0px;text-anchor:middle;fill:#000000;fill-opacity:1;stroke:none;font-family:Arial;-inkscape-font-specification:Arial"
       xml:space="preserve"
       transform="matrix(0.25881905,0.96592583,-0.96592583,0.25881905,0,0)"><tspan
         y="-505.08948"
         x="770.64435"
         id="tspan6743"
         sodipodi:role="line">M</tspan></text>
    <g
       id="g7430"
       transform="matrix(0.70710678,-0.70710679,0.70710679,0.70710678,-332.41721,541.61896)">
      <path
         sodipodi:type="arc"
         style="fill:#ffffff;stroke:#000000;stroke-width:9.0953598;stroke-miterlimit:4;stroke-dasharray:none"
         id="path6613"
         sodipodi:cx="202.5"
         sodipodi:cy="157.5"
         sodipodi:rx="22.5"
         sodipodi:ry="22.5"
         d="M 225,157.5 A 22.5,22.5 0 1 1 180,157.5 22.5,22.5 0 1 1 225,157.5 z"
         transform="matrix(-0.78171726,3.059476e-7,3.059476e-7,0.78171726,656.02509,755.84729)" />
      <text
         transform="scale(-1,-1)"
         xml:space="preserve"
         style="font-size:20px;font-style:normal;font-variant:normal;font-weight:normal;font-stretch:normal;text-align:center;line-height:125%;letter-spacing:0px;word-spacing:0px;text-anchor:middle;fill:#000000;fill-opacity:1;stroke:none;font-family:Arial;-inkscape-font-specification:Arial"
         x="-497.59283"
         y="-871.34302"
         id="text6745"
         sodipodi:linespacing="125%"><tspan
           sodipodi:role="line"
           id="tspan6747"
           x="-497.59283"
           y="-871.34302">J</tspan></text>
    </g>
    <g
       id="g7425"
       transform="matrix(0.70710678,-0.70710679,0.70710679,0.70710678,-332.41727,538.79057)">
      <path
         sodipodi:type="arc"
         style="fill:#ffffff;stroke:#000000;stroke-width:9;stroke-miterlimit:4;stroke-dasharray:none"
         id="path3863"
         sodipodi:cx="202.5"
         sodipodi:cy="157.5"
         sodipodi:rx="22.5"
         sodipodi:ry="22.5"
         d="M 225,157.5 C 225,169.92641 214.92641,180 202.5,180 190.07359,180 180,169.92641 180,157.5 180,145.07359 190.07359,135 202.5,135 214.92641,135 225,145.07359 225,157.5 z"
         transform="matrix(0.78554029,0,0,-0.78554029,336.18968,897.56168)" />
      <text
         transform="scale(-1,-1)"
         sodipodi:linespacing="125%"
         id="text6749"
         y="-766.45282"
         x="-495.69009"
         style="font-size:20px;font-style:normal;font-variant:normal;font-weight:normal;font-stretch:normal;text-align:center;line-height:125%;letter-spacing:0px;word-spacing:0px;text-anchor:middle;fill:#000000;fill-opacity:1;stroke:none;font-family:Arial;-inkscape-font-specification:Arial"
         xml:space="preserve"><tspan
           y="-766.45282"
           x="-495.69009"
           id="tspan6751"
           sodipodi:role="line">J</tspan></text>
    </g>
    <text
       sodipodi:linespacing="125%"
       id="text6753"
       y="-736.82477"
       x="-655.06067"
       style="font-size:20px;font-style:normal;font-variant:normal;font-weight:normal;font-stretch:normal;text-align:center;line-height:125%;letter-spacing:0px;word-spacing:0px;text-anchor:middle;fill:#000000;fill-opacity:1;stroke:none;font-family:Arial;-inkscape-font-specification:Arial"
       xml:space="preserve"
       transform="matrix(-0.96592583,-0.25881905,0.25881905,-0.96592583,0,0)"><tspan
         y="-736.82477"
         x="-655.06067"
         id="tspan6755"
         sodipodi:role="line">S</tspan></text>
    <text
       sodipodi:linespacing="125%"
       id="text6761"
       y="144.97635"
       x="-770.34741"
       style="font-size:20px;font-style:normal;font-variant:normal;font-weight:normal;font-stretch:normal;text-align:center;line-height:125%;letter-spacing:0px;word-spacing:0px;text-anchor:middle;fill:#000000;fill-opacity:1;stroke:none;font-family:Arial;-inkscape-font-specification:Arial"
       xml:space="preserve"
       transform="matrix(-0.25881905,-0.96592583,0.96592583,-0.25881905,0,0)"><tspan
         y="144.97635"
         x="-770.34741"
         id="tspan6763"
         sodipodi:role="line">N</tspan></text>
    <text
       xml:space="preserve"
       style="font-size:20px;font-style:normal;font-variant:normal;font-weight:normal;font-stretch:normal;text-align:center;line-height:125%;letter-spacing:0px;word-spacing:0px;text-anchor:middle;fill:#000000;fill-opacity:1;stroke:none;font-family:Arial;-inkscape-font-specification:Arial"
       x="-680.54657"
       y="423.61511"
       id="text6765"
       sodipodi:linespacing="125%"
       transform="matrix(0,-1,1,0,0,0)"><tspan
         sodipodi:role="line"
         id="tspan6767"
         x="-680.54657"
         y="423.61511" /></text>
    <flowRoot
       xml:space="preserve"
       id="flowRoot6769"
       style="font-size:20px;font-style:normal;font-variant:normal;font-weight:normal;font-stretch:normal;text-align:center;line-height:125%;letter-spacing:0px;word-spacing:0px;text-anchor:middle;fill:#000000;fill-opacity:1;stroke:none;font-family:Arial;-inkscape-font-specification:Arial"
       transform="matrix(0,-1,1,0,106.61513,1145.5466)"><flowRegion
         id="flowRegion6771"><rect
           id="rect6773"
           width="892.36877"
           height="964.49365"
           x="113.13708"
           y="-38.273304" /></flowRegion><flowPara
         id="flowPara6775"></flowPara></flowRoot>    <path
       sodipodi:type="arc"
       style="fill:#ffffff;stroke:#000000;stroke-width:9.0947361;stroke-miterlimit:4;stroke-dasharray:none"
       id="path7465"
       sodipodi:cx="202.5"
       sodipodi:cy="157.5"
       sodipodi:rx="22.5"
       sodipodi:ry="22.5"
       d="M 225,157.5 A 22.5,22.5 0 1 1 180,157.5 22.5,22.5 0 1 1 225,157.5 z"
       transform="matrix(-0.75513262,-0.2023375,-0.2023375,0.75513262,652.17397,707.76581)" />
    <text
       xml:space="preserve"
       style="font-size:20px;font-style:normal;font-variant:normal;font-weight:normal;font-stretch:normal;text-align:center;line-height:125%;letter-spacing:0px;word-spacing:0px;text-anchor:middle;fill:#000000;fill-opacity:1;stroke:none;font-family:Arial;-inkscape-font-specification:Arial"
       x="-655.06067"
       y="-630.82477"
       id="text7467"
       sodipodi:linespacing="125%"
       transform="matrix(-0.96592583,-0.25881905,0.25881905,-0.96592583,0,0)"><tspan
         sodipodi:role="line"
         id="tspan7469"
         x="-655.06067"
         y="-630.82477">S</tspan></text>
    <text
       xml:space="preserve"
       style="font-size:20px;font-style:normal;font-variant:normal;font-weight:normal;font-stretch:normal;text-align:center;line-height:125%;letter-spacing:0px;word-spacing:0px;text-anchor:middle;fill:#000000;fill-opacity:1;stroke:none;font-family:Arial;-inkscape-font-specification:Arial"
       id="text7471"
       sodipodi:linespacing="125%"
       transform="matrix(-0.70710679,-0.70710678,0.70710678,-0.70710679,-414.55663,1557.2931)"><textPath
         xlink:href="#path7475"
         startOffset="50%"
         id="textPath7481"><tspan
   id="tspan7473">START</tspan></textPath></text>
    <path
       style="fill:none;stroke:none;stroke-width:14.39999961999999911;stroke-linecap:round;stroke-linejoin:round;stroke-miterlimit:4;stroke-opacity:1;stroke-dashoffset:0"
       d="M 29.151371,1274.0777 C 35.012161,1252.2055 57.49387,1239.2256 79.365986,1245.0863 92.872113,1248.7053 103.60273,1258.9577 107.83304,1272.285"
       id="path7475"
       inkscape:connector-curvature="0" />
  </g>
</svg>
