<?xml version="1.0" encoding="UTF-8" standalone="no"?>
<!-- Created with Inkscape (http://www.inkscape.org/) -->

<svg
   xmlns:dc="http://purl.org/dc/elements/1.1/"
   xmlns:cc="http://creativecommons.org/ns#"
   xmlns:rdf="http://www.w3.org/1999/02/22-rdf-syntax-ns#"
   xmlns:svg="http://www.w3.org/2000/svg"
   xmlns="http://www.w3.org/2000/svg"
   xmlns:sodipodi="http://sodipodi.sourceforge.net/DTD/sodipodi-0.dtd"
   xmlns:inkscape="http://www.inkscape.org/namespaces/inkscape"
   width="306.2048"
   height="398.63522"
   id="svg2"
   version="1.1"
   inkscape:version="0.48.2 r9819"
   sodipodi:docname="bear.svg"
   style="display:inline">
  <title
     id="title4001">teddy bear with red scarf</title>
  <defs
     id="defs4" />
  <sodipodi:namedview
     id="base"
     pagecolor="#ffffff"
     bordercolor="#666666"
     borderopacity="1.0"
     inkscape:pageopacity="0.0"
     inkscape:pageshadow="2"
     inkscape:zoom="0.80023034"
     inkscape:cx="-3.7274431"
     inkscape:cy="199.31761"
     inkscape:document-units="px"
     inkscape:current-layer="layer2"
     showgrid="false"
     inkscape:object-paths="false"
     inkscape:window-width="1379"
     inkscape:window-height="856"
     inkscape:window-x="61"
     inkscape:window-y="0"
     inkscape:window-maximized="1"
     inkscape:object-nodes="false"
     fit-margin-top="0"
     fit-margin-left="0"
     fit-margin-right="0"
     fit-margin-bottom="0" />
  <metadata
     id="metadata7">
    <rdf:RDF>
      <cc:Work
         rdf:about="">
        <dc:format>image/svg+xml</dc:format>
        <dc:type
           rdf:resource="http://purl.org/dc/dcmitype/StillImage" />
        <dc:title>teddy bear with red scarf</dc:title>
        <dc:date>2011-05-22</dc:date>
        <dc:creator>
          <cc:Agent>
            <dc:title>tzunghaor (Prim András)</dc:title>
          </cc:Agent>
        </dc:creator>
        <cc:license
           rdf:resource="http://creativecommons.org/licenses/publicdomain/" />
        <dc:publisher>
          <cc:Agent>
            <dc:title>openclipart.org</dc:title>
          </cc:Agent>
        </dc:publisher>
        <dc:subject>
          <rdf:Bag>
            <rdf:li>teddy bear</rdf:li>
            <rdf:li>bear</rdf:li>
            <rdf:li>toy</rdf:li>
            <rdf:li>scarf</rdf:li>
            <rdf:li />
          </rdf:Bag>
        </dc:subject>
      </cc:Work>
      <cc:License
         rdf:about="http://creativecommons.org/licenses/publicdomain/">
        <cc:permits
           rdf:resource="http://creativecommons.org/ns#Reproduction" />
        <cc:permits
           rdf:resource="http://creativecommons.org/ns#Distribution" />
        <cc:permits
           rdf:resource="http://creativecommons.org/ns#DerivativeWorks" />
      </cc:License>
    </rdf:RDF>
  </metadata>
  <g
     inkscape:groupmode="layer"
     id="layer2"
     inkscape:label="Réteg"
     transform="translate(-51.705088,-20.180929)">
    <g
       id="g3082"
       transform="translate(-7.7036305,3.3808078)"
       inkscape:export-filename="/Users/msh801/github/GreenHomeGames/images/polar_bear.png"
       inkscape:export-xdpi="16"
       inkscape:export-ydpi="16">
      <path
         transform="translate(-425.15198,-145.89666)"
         d="M 243.21875,20.1875 A 3.8463567,3.8463567 0 0 0 242.40625,20.34375 C 232.32462,23.197033 225.23724,28.798827 219.34375,34.90625 214.61214,34.443356 209.8094,34.60863 204.9375,35.28125 A 3.8463567,3.8463567 0 0 0 201.59375,29.21875 C 193.22241,29.618852 185.50919,29.708117 178.4375,32.40625 A 3.8463567,3.8463567 0 0 0 174.25,29.21875 C 167.8871,29.830781 160.36551,32.498142 152.59375,35.9375 151.08554,34.780487 149.54104,33.731864 147.90625,32.9375 A 3.8463567,3.8463567 0 0 0 143.65625,33.5625 C 136.62475,29.585605 127.87274,25.203267 116.1875,25.21875 A 3.8463567,3.8463567 0 0 0 112.34375,29.15625 C 104.34128,32.243147 96.785453,37.328309 90.9375,42.84375 87.62212,45.970619 84.834924,49.198071 82.875,52.375 80.915076,55.551929 79.550318,58.680951 80.03125,62.1875 A 3.8463567,3.8463567 0 0 0 82.15625,65.09375 L 82.25,65.125 C 80.240788,81.400565 89.370404,94.305767 96.09375,102.0625 A 3.8463567,3.8463567 0 0 0 96.3125,102.25 C 95.383673,106.67667 94.460018,111.10785 93.65625,115.53125 91.273205,115.90852 88.926329,116.56549 86.875,117.9375 83.905941,119.92332 81.63246,123.12997 80.625,127.125 A 3.8463567,3.8463567 0 0 0 80.53125,127.5625 C 80.461252,128.09775 80.432471,128.6201 80.4375,129.125 80.437243,129.07945 80.434838,129.10771 80.4375,129.25 A 3.8463567,3.8463567 0 0 0 80.4375,129.28125 C 80.461468,130.30156 80.623017,131.21265 80.84375,132 81.083347,132.86961 81.422554,133.6569 81.78125,134.375 82.319381,135.45018 82.88558,136.29307 83.3125,136.96875 83.915015,137.92389 84.296778,138.58973 84.4375,139.03125 84.456773,139.09155 84.477172,139.18029 84.5,139.3125 A 3.8463567,3.8463567 0 0 0 84.5,139.34375 C 84.488644,139.27981 84.497586,139.30336 84.5,139.53125 84.500964,139.61875 84.485164,139.64637 84.46875,139.75 84.443208,139.91745 84.435869,139.97267 84.40625,140.0625 84.424458,140.00728 84.414049,140.07404 84.375,140.15625 84.40343,140.09638 84.42496,140.05948 84.34375,140.1875 84.367223,140.15099 84.34055,140.2236 84.34375,140.21875 84.34855,140.21147 84.379962,140.16609 84.3125,140.25 84.294888,140.27169 84.164353,140.42874 83.875,140.65625 83.630239,140.84877 83.402086,141.0248 83.21875,141.15625 82.731211,141.50563 81.990577,141.99665 81.1875,142.8125 80.778775,143.22773 80.42319,143.67599 80.09375,144.1875 79.961354,144.39312 79.756428,144.69535 79.59375,145.03125 L 79.625,145.03125 C 79.470061,145.34593 79.30129,145.66424 79.1875,146 79.051881,146.40019 78.97921,146.87318 78.9375,147.25 78.935067,147.27135 78.93968,147.29117 78.9375,147.3125 78.81092,148.55113 79.07852,149.75209 79.5,150.65625 79.863467,151.43859 80.227696,151.84879 80.375,152.0625 80.991638,152.95865 81.477124,153.51481 81.78125,153.9375 81.706747,154.02035 81.795991,153.90463 81.65625,154.03125 81.143496,154.49585 80.283374,155.15157 79.34375,156.21875 79.337006,156.22641 79.319251,156.21105 79.3125,156.21875 A 3.8463567,3.8463567 0 0 0 79.3125,156.25 3.8463567,3.8463567 0 0 0 79.25,156.3125 C 79.249987,156.31252 79.219514,156.34212 79.21875,156.34375 79.244401,156.29716 79.167138,156.43168 78.875,156.8125 L 78.84375,156.78125 C 78.843724,156.78128 78.82051,156.86089 78.8125,156.875 A 3.8463567,3.8463567 0 0 0 78.78125,156.90625 C 78.774586,156.91852 78.716449,157.00929 78.6875,157.0625 78.533442,157.33413 78.34388,157.71842 78.34375,157.71875 78.339646,157.72628 78.312487,157.78128 78.3125,157.78125 78.176835,158.02562 78.019947,158.21604 77.90625,158.5 77.900395,158.51462 77.880771,158.51653 77.875,158.53125 77.870092,158.54349 77.879897,158.55008 77.875,158.5625 A 3.8463567,3.8463567 0 0 0 77.84375,158.59375 C 77.690395,158.99952 77.625924,159.29963 77.5625,159.59375 77.302867,160.79759 77.445287,161.62906 77.5625,162.34375 L 77.53125,162.34375 C 77.899106,164.64871 78.84375,166.5 78.84375,166.5 A 3.8463567,3.8463567 0 0 0 80.25,168.15625 C 80.668743,168.42934 81.119445,168.7054 81.625,169 81.734037,169.06341 81.812658,169.12058 81.875,169.15625 82.386208,169.45014 83.058997,169.77623 83.65625,170.09375 76.115803,184.11064 69.265649,198.67603 67.5,215.03125 A 3.8463567,3.8463567 0 0 0 68.625,218.1875 C 63.330776,230.04622 59.798278,242.93514 58.3125,256.96875 A 3.8463567,3.8463567 0 0 0 60.8125,260.96875 C 59.071278,269.62563 51.336927,308.86429 51.71875,333.1875 51.841611,341.01376 53.5,355.28125 53.5,355.28125 A 3.8463567,3.8463567 0 0 0 59.125,358.21875 C 61.131541,361.64254 64.104894,366.56349 68.5625,373.03125 75.493928,383.0884 84.247188,394.45203 93.46875,400.0625 121.79106,417.29402 147.03932,418.90699 183.34375,418.8125 189.49003,418.7965 197.26194,416.91127 204.25,414.84375 207.74403,413.80999 211.01012,412.72794 213.65625,411.75 216.30238,410.77206 218.17576,410.02903 219.59375,409.21875 A 3.8463567,3.8463567 0 0 0 221.5,406.40625 L 221.84375,403.96875 228.25,396.34375 242.90625,394.59375 264.3125,396.5625 C 285.6061,398.5433 311.67157,392.89548 330.28125,381.90625 A 3.8463567,3.8463567 0 0 0 331.65625,376.71875 C 333.97341,375.4731 336.5288,373.97118 339.3125,371.78125 348.19414,364.79408 357.43315,351.70998 357.90625,327.125 358.057,319.2912 353.49046,313.01084 348.3125,308.59375 344.79417,305.59242 341.09675,303.58654 337.625,302.0625 A 3.8463567,3.8463567 0 0 0 335.875,298.03125 C 330.70637,294.86388 326.59901,291.12165 320.59375,289.25 319.42333,281.37241 318.15198,275.43238 316.1875,267.8125 325.90184,264.12858 332.20779,259.08253 339,249.5 A 3.8463567,3.8463567 0 0 0 338.28125,244.28125 L 337.90625,244 C 341.05367,235.9319 342.05376,226.5687 340.34375,217.65625 338.5689,208.40586 333.81959,199.62487 325.59375,194.15625 L 325.59375,192.71875 A 3.8463567,3.8463567 0 0 0 323.875,189.5 C 318.63357,186.05421 311.42575,184.09966 301.90625,183.5 302.25725,182.86643 302.56947,182.22574 302.78125,181.625 303.77139,178.81637 303.28125,176.21875 303.28125,176.21875 A 3.8463567,3.8463567 0 0 0 302.625,174.78125 C 301.26872,172.93178 299.66249,170.83636 298.46875,168.875 297.29642,166.94881 296.70402,165.15575 296.6875,164.59375 296.84296,164.37565 297.42357,163.71484 298.1875,162.59375 298.71165,161.82683 299.30694,160.84936 299.9375,159.59375 A 3.8463567,3.8463567 0 0 0 300,159.4375 C 300.304,158.75667 300.51795,158.15562 300.6875,157.59375 300.72205,157.48154 300.74193,157.35472 300.78125,157.21875 A 3.8463567,3.8463567 0 0 0 300.8125,157.1875 C 300.88391,156.92973 300.96421,156.53105 301.0625,156.09375 L 301.09375,156.09375 C 301.01674,156.41329 301.0593,156.28056 301.1875,155.71875 A 3.8463567,3.8463567 0 0 0 301.1875,155.65625 3.8463567,3.8463567 0 0 0 301.28125,154.96875 3.8463567,3.8463567 0 0 0 301.28125,154.875 C 302.13274,149.81675 301.81667,143.81729 297.75,139.5625 292.4444,134.01146 285.4856,132.22615 279.40625,131.84375 274.89845,118.54899 269.66861,105.23308 262.6875,92.09375 266.44182,89.717957 269.76706,86.359552 272.375,81.875 A 3.8463567,3.8463567 0 0 0 275.375,79.9375 C 278.036,75.136103 281.48244,65.829215 277.625,55.65625 A 3.8463567,3.8463567 0 0 0 278.40625,51.78125 C 276.07673,45.210258 270.88528,35.076016 260.1875,29.40625 A 3.8463567,3.8463567 0 0 0 258.0625,26.15625 C 256.81648,25.534774 254.39245,23.872755 251.1875,22.96875 249.94212,22.617471 248.49481,22.509573 247,22.5625 A 3.8463567,3.8463567 0 0 0 243.21875,20.1875 z M 79.15625,156.53125 C 79.120059,156.60907 79.041804,156.71778 78.96875,156.875 L 78.9375,156.84375 C 79.034295,156.69355 79.067404,156.66915 79.15625,156.53125 z M 78.90625,156.9375 78.9375,156.96875 C 78.931868,156.98087 78.94321,156.98771 78.9375,157 78.92909,157.0181 78.914801,157.01285 78.90625,157.03125 78.679291,157.51977 78.437622,158.0306 78.4375,158.03125 78.437395,158.03179 78.718949,157.2183 78.71875,157.21875 78.718727,157.2188 78.765445,157.11826 78.78125,157.09375 78.786142,157.08616 78.806357,157.07203 78.8125,157.0625 78.834708,157.02805 78.871481,156.99145 78.90625,156.9375 z"
         id="path3993"
         style="fill:#000000;fill-opacity:1;stroke:none"
         inkscape:original="M 243.46875 24.03125 C 233.49031 26.855327 226.72367 32.492064 220.8125 38.875 C 212.9127 37.807191 204.63315 38.651044 196.0625 40.9375 L 201.78125 33.0625 C 189.51399 33.648805 180.08092 33.446866 171.84375 40.75 L 174.625 33.0625 C 168.47487 33.654065 160.35279 36.476204 151.96875 40.34375 C 150.14339 38.708361 148.18433 37.361349 146.21875 36.40625 L 146.21875 39.4375 C 138.38179 35.009113 129.25747 29.045182 116.1875 29.0625 L 116.6875 31.59375 C 99.885261 36.76476 82.76918 53.821398 83.84375 61.65625 L 86.375 62.90625 C 83.07618 78.866154 92.10256 91.573665 99 99.53125 L 101.03125 96 C 101.12865 96.202906 101.23959 96.397132 101.34375 96.59375 C 99.660358 104.05975 98.192775 111.50275 96.875 118.96875 C 91.04635 118.99695 85.94993 121.69328 84.34375 128.0625 C 84.2968 128.42151 84.27792 128.75944 84.28125 129.09375 C 84.281426 129.12495 84.28067 129.1565 84.28125 129.1875 C 84.2961 129.81966 84.405738 130.40958 84.5625 130.96875 C 84.727361 131.56711 84.949665 132.11755 85.21875 132.65625 C 85.61661 133.45117 86.100115 134.17444 86.5625 134.90625 C 87.182902 135.88975 87.763387 136.83847 88.09375 137.875 C 88.17595 138.13217 88.235001 138.3884 88.28125 138.65625 C 88.33048 138.93342 88.34066 139.20824 88.34375 139.5 C 88.34685 139.78148 88.32846 140.04569 88.28125 140.34375 C 88.23427 140.65174 88.170936 140.95238 88.0625 141.28125 C 88.00201 141.4647 87.921063 141.64973 87.84375 141.8125 C 87.76648 141.97523 87.685585 142.10523 87.59375 142.25 C 87.58905 142.258 87.59855 142.27375 87.59375 142.28125 C 87.50603 142.41768 87.411254 142.53342 87.3125 142.65625 C 87.3071 142.66325 87.3179 142.6808 87.3125 142.6875 C 87.00321 143.06849 86.627682 143.39054 86.25 143.6875 C 85.994041 143.88883 85.734011 144.09106 85.46875 144.28125 C 84.938895 144.66095 84.397649 145.03253 83.9375 145.5 C 83.707175 145.73399 83.498587 145.99232 83.3125 146.28125 C 83.21953 146.42564 83.141099 146.55646 83.0625 146.71875 C 82.97894 146.88846 82.908969 147.05756 82.84375 147.25 C 82.79231 147.40179 82.76482 147.53795 82.75 147.6875 C 82.6978 148.14567 82.79366 148.58861 83 149.03125 C 83.134721 149.32123 83.333081 149.5875 83.53125 149.875 C 84.52107 151.31349 86.066758 152.74411 85.875 154.34375 C 85.85621 154.50046 85.82508 154.63496 85.78125 154.78125 C 85.77855 154.79025 85.78405 154.8032 85.78125 154.8125 C 85.285685 156.40566 83.387966 157.41564 82.21875 158.75 C 82.21385 158.756 82.22365 158.77575 82.21875 158.78125 C 82.117663 158.89751 81.994988 159.00327 81.90625 159.125 C 81.90165 159.131 81.91085 159.14995 81.90625 159.15625 C 81.726458 159.40588 81.578621 159.65722 81.46875 159.9375 C 81.46375 159.9498 81.44235 159.95645 81.4375 159.96875 C 81.38711 160.10208 81.34311 160.2643 81.3125 160.40625 C 81.23069 160.78558 81.26241 161.25407 81.34375 161.75 C 81.581839 163.24185 82.34375 164.9375 82.34375 164.9375 C 82.706773 165.17425 83.110345 165.42402 83.5625 165.6875 C 83.64074 165.733 83.700331 165.7662 83.78125 165.8125 C 84.732697 166.35948 85.955135 167.00562 87.25 167.65625 C 87.458158 167.76052 87.659137 167.86218 87.875 167.96875 C 88.220746 168.13978 88.508545 168.29142 88.875 168.46875 C 80.669332 183.45762 73.127753 198.62279 71.3125 215.4375 L 74.25 214.9375 C 67.83893 227.65736 63.77418 241.79801 62.125 257.375 L 65.65625 255.84375 C 65.65625 255.84375 55.15475 307.15017 55.5625 333.125 C 55.67763 340.45882 57.3125 354.84375 57.3125 354.84375 L 60.125 352.3125 C 60.125 352.3125 79.29569 386.94143 95.46875 396.78125 C 123.02753 413.54823 147.15107 415.06295 183.34375 414.96875 C 193.94497 414.94115 214.15196 407.8953 217.6875 405.875 L 218.1875 402.34375 L 226.28125 392.71875 L 242.9375 390.71875 L 264.65625 392.71875 C 284.9612 394.60758 310.58811 389.0602 328.3125 378.59375 L 322.25 379.09375 C 319.9279 373.56642 353.15091 374.43437 354.0625 327.0625 C 354.30406 314.50977 339.21152 305.8999 331.84375 303.84375 L 333.875 301.3125 C 327.52419 297.42068 323.60377 293.38644 317.1875 292.21875 C 315.6794 281.44379 314.5112 276.24371 311.65625 265.46875 C 323.04508 261.83394 328.52606 257.64922 335.875 247.28125 L 333.34375 245.25 C 340.79258 229.65882 338.36143 205.56202 321.75 196.25 L 321.75 192.71875 C 316.00429 188.94144 306.7608 186.89477 292.9375 187.15625 C 292.916 187.09365 292.8965 187.03134 292.875 186.96875 C 300.75919 182.55415 299.53125 177.0625 299.53125 177.0625 C 296.90556 173.48201 292.80915 168.32611 292.84375 164.5 C 292.85905 162.80626 293.66941 162.39019 295 160.4375 C 295.44444 159.78721 295.94925 158.97168 296.5 157.875 C 296.693 157.44277 296.8481 156.97214 297 156.46875 C 297.0307 156.36905 297.06415 156.25861 297.09375 156.15625 C 297.18005 155.84474 297.27375 155.51835 297.34375 155.1875 C 297.37005 155.07837 297.4122 154.98587 297.4375 154.875 C 297.4315 154.878 297.41255 154.90315 297.40625 154.90625 C 298.23833 150.63733 297.68022 145.05565 294.96875 142.21875 C 289.88677 136.90168 282.6544 135.51445 276.65625 135.53125 C 271.6243 120.40698 265.76031 105.33776 257.5625 90.59375 C 263.13545 88.02182 267.93382 83.745402 270.96875 76.3125 L 272 78.0625 C 274.70251 73.186209 278.29872 63.644815 272.25 53.3125 L 274.78125 53.0625 C 272.31548 46.107191 266.49288 35.104815 253.8125 30.84375 C 253.8125 30.84375 254.57598 29.59375 256.34375 29.59375 C 253.06193 27.956877 247.88642 23.964795 241.9375 28.0625 L 243.46875 24.03125 z "
         inkscape:radius="3.8459721"
         sodipodi:type="inkscape:offset" />
      <path
         sodipodi:nodetypes="ccccccccccc"
         inkscape:connector-curvature="0"
         id="path3148"
         d="M -208.21302,-102.67687 C -201.3134,-110.77131 -193.89979,-118.41602 -181.69651,-121.86977 L -183.21174,-117.82916 C -177.26282,-121.92686 -172.09889,-117.9508 -168.81707,-116.31393 -170.58484,-116.31393 -171.34245,-115.05124 -171.34245,-115.05124 -158.66207,-110.79017 -152.84756,-99.783189 -150.38179,-92.82788 L -152.90717,-92.575342 C -146.85845,-82.243027 -150.4572,-72.702896 -153.15971,-67.826605 L -154.16986,-69.594371 C -158.25668,-59.58526 -165.5625,-55.256547 -173.61529,-53.179392 z"
         style="fill:#ffffff;fill-opacity:1;stroke:#000000" />
      <path
         sodipodi:nodetypes="cccccscc"
         inkscape:connector-curvature="0"
         id="path3995"
         d="M -195.08974,-89.544884 C -190.71608,-95.27725 -183.62601,-101.19341 -177.66461,-101.66672 L -179.17983,-98.131181 C -173.3394,-100.80068 -168.96407,-98.413727 -163.26993,-93.585494 L -164.53262,-91.060112 C -157.67643,-86.658585 -162.01549,-80.34915 -163.52248,-75.655286 -167.7233,-62.570826 -174.71833,-66.227195 -180.44253,-59.997921 z"
         style="fill:#e3dedb;fill-opacity:1;stroke:none" />
      <path
         sodipodi:nodetypes="ccccccccccccccccccsccsccccssccsccccccc"
         inkscape:connector-curvature="0"
         id="path3117"
         d="M -302.51083,-88.419356 C -288.15946,-98.901845 -264.35956,-111.48962 -250.52642,-112.82019 L -253.2969,-105.13636 C -245.05973,-112.4395 -235.65082,-112.23388 -223.38356,-112.82019 L -229.09785,-104.96305 C -217.27665,-108.11668 -206.00185,-108.53827 -195.52642,-104.96305 L -202.66928,-99.24876 C -191.113,-94.210874 -180.81777,-86.020373 -171.95499,-74.24876 L -178.66606,-72.877367 C -152.4202,-36.139676 -145.30258,3.2179435 -132.19904,41.269874 -118.37574,41.008394 -109.1554,43.048404 -103.40969,46.825714 L -103.40969,50.361244 C -86.798255,59.673264 -84.344105,83.762464 -91.792935,99.353644 L -89.267545,101.37394 C -96.616485,111.74191 -102.12239,115.92188 -113.51122,119.55669 -110.65627,130.33165 -109.46348,135.55077 -107.95538,146.32573 -101.53911,147.49342 -97.638665,151.52528 -91.287855,155.4171 L -93.308155,157.94249 C -85.940385,159.99864 -70.843245,168.62326 -71.084805,181.17599 -71.996395,228.54786 -105.22671,227.67152 -102.90461,233.19885 L -96.843695,232.69377 C -114.56809,243.16022 -140.17836,248.72474 -160.48331,246.83591 L -182.20159,244.81561 -198.86911,246.83591 -206.95033,256.43236 -207.4554,259.96789 C -210.99094,261.98819 -231.19937,269.03169 -241.80059,269.05926 -277.99327,269.15346 -302.12508,267.6435 -329.68385,250.87652 -345.85691,241.0367 -365.03919,206.42981 -365.03919,206.42981 L -367.83505,208.95519 C -367.83505,208.95519 -369.46975,194.57073 -369.58488,187.23691 -369.99263,161.26208 -359.48335,109.96024 -359.48335,109.96024 L -363.01889,111.47547 C -361.36971,95.898484 -357.30813,81.768924 -350.89706,69.049064 L -353.83034,69.554144 C -351.97496,52.367734 -344.16033,36.883964 -335.74477,21.571894 -330.96424,-10.584626 -327.00378,-42.741146 -317.05695,-74.897672 z"
         style="fill:#ffffff;fill-opacity:1;stroke:#000000" />
      <path
         transform="matrix(-1,0,0,1,-15.526415,-145.89666)"
         d="M 273.875,52.625 252.53125,64 C 255.64495,68.197063 269.104,86.480799 274.5625,99.625 286.94924,129.45258 296,191.78125 296,191.78125 A 3.0908836,3.0908836 0 0 1 294.15625,195.0625 C 281.91885,200.2932 273.27963,203.79117 266.5,207.5625 259.72037,211.33383 254.75837,215.30336 249.375,221.9375 236.46141,237.85144 237.79365,259.90992 246.125,269.25 260.43753,281.25715 274.1658,283.60847 288.46875,281.59375 A 3.0908836,3.0908836 0 0 1 291.96875,285.0625 C 289.37913,304.93206 279.35487,319.46028 264.46875,326.34375 A 3.0908836,3.0908836 0 0 1 263.78125,326.5625 C 263.78125,326.5625 254.5395,328.4161 243.625,331.59375 232.7105,334.7714 220.04849,339.46996 214.0625,344.15625 207.06645,349.63329 197.62189,357.5387 195.5,378.90625 194.28995,391.09143 203.24642,403.14276 216.96875,410.625 220.50143,411.36185 223.86324,411.86871 226.28125,411.875 262.38413,411.96897 285.61728,410.54993 312.5625,394.15625 319.73693,389.79127 328.62356,378.8444 335.34375,369.09375 342.06394,359.3431 346.78125,350.8125 346.78125,350.8125 A 3.0908836,3.0908836 0 0 1 349.78125,349.25 C 350.26911,344.47233 350.89503,337.7588 350.96875,333.0625 351.36243,307.98423 340.9375,256.46875 340.9375,256.46875 A 3.0908836,3.0908836 0 0 1 343.71875,252.75 C 341.82184,239.48323 338.16867,227.34265 332.625,216.34375 A 3.0908836,3.0908836 0 0 1 334.65625,211.9375 C 332.20903,196.9559 325.22409,183.0227 317.5,168.96875 A 3.0908836,3.0908836 0 0 1 317.15625,167.9375 C 312.40556,135.98168 308.45684,104.23225 298.78125,72.65625 L 285.1875,59.96875 C 285.17706,59.961125 285.1667,59.945128 285.15625,59.9375 281.90674,57.565908 277.94962,55.087123 273.875,52.625 z M 112.4375,195.5 C 102.90167,196.99826 99.596725,199.3368 92.5,203.46875 92.4911,203.47393 92.477663,203.46356 92.46875,203.46875 86.309719,207.15959 79.766088,218.72691 75.65625,231.4375 76.14493,235.91105 77.29779,240.21252 79.0625,243.90625 A 3.0908836,3.0908836 0 0 1 78.21875,247.65625 L 78.0625,247.78125 C 83.39453,254.85313 87.889107,258.38359 95.4375,261.21875 97.543865,241.62103 103.6794,216.08814 112.4375,195.5 z M 89.3125,310.53125 C 84.091836,311.75445 80.648048,313.75875 77.71875,316.3125 74.401103,319.20482 71.637434,322.91616 67.90625,326.6875 63.556925,331.08363 61.321834,335.30923 59.875,339.65625 62.781106,355.79362 70.14321,363.38255 76.75,367.90625 80.109374,370.20643 83.247118,371.66278 85.71875,372.96875 86.954566,373.62173 88.034366,374.17295 89.0625,375.1875 89.576567,375.69478 90.122786,376.38896 90.40625,377.34375 90.640295,378.13208 90.5633,379.00208 90.34375,379.78125 106.75005,387.32172 127.85567,391.222 144.6875,389.65625 L 154.0625,388.78125 C 151.30032,387.59072 148.83381,386.60745 145.5625,385.0625 134.70817,379.93631 122.21123,373.2694 114.96875,365.96875 105.0151,355.93516 99.856531,343.04358 96.34375,331.9375 94.58736,326.38446 93.226951,321.23706 91.96875,317.15625 91.036843,314.13373 90.11407,312.02032 89.3125,310.53125 z"
         id="path3956"
         style="fill:#e3dedb;fill-opacity:1;stroke:none"
         inkscape:original="M 274.03125 49.03125 L 248 62.90625 C 248 62.90625 266.0023 87.047153 271.71875 100.8125 C 283.71492 129.69957 292.9375 192.21875 292.9375 192.21875 C 268.52012 202.65561 258.15989 206.20871 246.96875 220 C 233.07612 237.12045 234.07136 260.66452 243.9375 271.5 C 258.92994 284.15806 273.91381 286.76809 288.90625 284.65625 C 286.42154 303.72088 277.03766 317.11237 263.15625 323.53125 C 263.15625 323.53125 225.7382 331.08576 212.15625 341.71875 C 205.02858 347.29883 194.64539 356.36022 192.4375 378.59375 C 191.04886 392.57734 201.21943 405.73478 215.9375 413.59375 C 219.74161 414.40626 223.3783 414.9612 226.28125 414.96875 C 262.47393 415.06295 286.59747 413.54823 314.15625 396.78125 C 330.32931 386.94143 349.5 352.3125 349.5 352.3125 L 352.3125 354.84375 C 352.3125 354.84375 353.94737 340.45882 354.0625 333.125 C 354.47025 307.15017 343.96875 255.84375 343.96875 255.84375 L 347.5 257.375 C 345.85082 241.79801 341.78607 227.65736 335.375 214.9375 L 338.3125 215.4375 C 336.45712 198.25109 328.63431 182.78082 320.21875 167.46875 C 315.43822 135.31223 311.47809 103.15653 301.53125 71 L 287 57.46875 C 283.2247 54.711208 278.76081 51.836915 274.03125 49.03125 z M 117.46875 191.65625 C 102.69297 193.11657 99.148901 196.01542 90.90625 200.8125 C 83.196026 205.41247 76.708092 217.80441 72.5 231.125 C 72.976986 236.14635 74.258391 241.01594 76.28125 245.25 L 73.75 247.28125 C 81.098933 257.64922 86.611172 261.83394 98 265.46875 C 99.750546 244.40947 107.15927 213.72568 117.46875 191.65625 z M 90.84375 307 C 76.816669 309.4381 72.791489 317.35115 65.71875 324.5 C 60.811099 329.46046 58.207738 334.41454 56.65625 339.375 C 62.511142 374.31845 89.474936 374.09522 87.375 379.09375 L 81.3125 378.59375 C 99.036887 389.0602 124.6638 394.60758 144.96875 392.71875 L 166.6875 390.71875 C 166.6875 390.71875 130.39087 377.12216 117.15625 363.78125 C 98.370515 344.84464 97.040234 314.22993 90.84375 307 z "
         inkscape:radius="-3.0905745"
         sodipodi:type="inkscape:offset" />
      <path
         sodipodi:nodetypes="csssccsccc"
         inkscape:connector-curvature="0"
         id="path3958"
         d="M -127.65335,100.36379 C -127.65335,100.36379 -126.6432,113.49577 -129.16858,117.03131 -131.69396,120.56684 -157.45285,132.68867 -161.49346,132.1836 -165.53407,131.67852 -198.86911,76.625214 -205.94017,75.615054 -213.01124,74.604904 -243.82089,66.271154 -243.82089,66.271154 -249.51094,57.528964 -257.73032,54.348934 -268.9533,52.944204 -268.9533,52.944204 -312.89177,36.994454 -332.39306,28.311204 -338.0068,25.811604 -334.14288,19.255734 -334.14288,19.255734 L -166.54423,61.977994 z"
         style="fill:#c8beb7;fill-opacity:1;stroke:none" />
      <path
         sodipodi:nodetypes="csscc"
         inkscape:connector-curvature="0"
         id="path3140"
         d="M -151.39194,44.805404 C -151.39194,44.805404 -125.38013,75.999384 -119.06706,96.828264 -116.50996,105.26497 -157.14555,128.69656 -159.97823,124.60745 -175.31076,102.47416 -180.61018,78.214874 -217.05185,62.483074 z"
         style="fill:#aa0000;fill-opacity:1;stroke:none" />
      <path
         sodipodi:nodetypes="ssssssss"
         inkscape:connector-curvature="0"
         id="path3920"
         d="M -174.62545,-17.318976 C -167.87914,-10.967346 -160.31797,-0.93173646 -163.00869,7.9348335 -165.53257,16.251604 -176.63183,20.317004 -185.23205,21.571894 -195.57702,23.081374 -209.44676,21.988354 -215.53662,13.490674 -218.48527,9.3761835 -216.71501,2.9027935 -214.52647,-1.6616165 -210.86882,-9.2899765 -203.44099,-15.122786 -195.83865,-18.834206 -192.15755,-20.631296 -187.79151,-21.275156 -183.71682,-20.854506 -180.48246,-20.520606 -176.99285,-19.547876 -174.62545,-17.318976 z"
         style="fill:#c8beb7;fill-opacity:1;stroke:none" />
      <path
         sodipodi:nodetypes="ccccccccc"
         inkscape:connector-curvature="0"
         id="path3936"
         d="M -269.57979,52.381554 C -259.96799,55.472954 -250.12427,56.940834 -241.80059,69.049064 L -247.35643,70.059214 C -233.70992,80.160744 -232.65795,90.767344 -233.71937,100.36379 L -237.75998,100.86887 C -235.73567,117.6872 -248.65204,125.97813 -256.4478,129.65821 L -259.98333,126.62776 C -282.38923,139.56484 -305.12247,131.5317 -314.53157,121.07192 L -317.05695,126.62776"
         style="fill:none;stroke:#000000" />
      <path
         sodipodi:nodetypes="ccscscc"
         inkscape:connector-curvature="0"
         id="path3950"
         d="M -151.40142,44.790844 C -151.40142,44.790844 -148.84741,47.870074 -145.33892,52.447094 -145.33892,52.447094 -191.49838,67.945274 -188.3791,72.174774 -173.5113,92.334354 -155.46392,124.44709 -155.46392,124.44709 -157.8244,125.18074 -159.47035,125.31583 -159.96392,124.60334 -175.29645,102.47005 -180.616,78.210144 -217.05767,62.478344 z"
         style="fill:#550000;fill-opacity:1;stroke:none" />
      <path
         sodipodi:nodetypes="cscscsscsssscccsacc"
         inkscape:connector-curvature="0"
         id="path3119"
         d="M -148.48711,-10.374146 C -142.48896,-10.390946 -135.26071,-8.9989865 -130.17873,-3.6819165 -126.76951,-0.11498646 -126.79899,7.7997835 -128.66351,11.975454 -130.86651,16.362174 -132.28959,16.348594 -132.31,18.606914 -132.3446,22.433024 -128.25874,27.587854 -125.63305,31.168344 -125.63305,31.168344 -124.11782,37.734334 -134.72442,42.280024 -145.33102,46.825714 -205.4651,79.075244 -237.2549,64.503384 -272.86173,48.181874 -331.19908,26.622654 -342.81583,19.046514 -342.81583,19.046514 -344.15323,16.018134 -343.82599,14.500824 -343.29358,12.032204 -339.58088,10.947344 -339.2803,8.4399135 -338.97508,5.8937735 -343.13385,3.7975235 -342.31076,1.3688435 -341.31874,-1.5582765 -338.05448,-1.6701865 -337.08668,-4.6054065 -335.41123,-9.6868465 -341.5468,-12.079866 -340.79553,-17.824056 -339.18935,-24.193276 -334.11857,-26.908636 -328.28992,-26.936826 L -329.05396,-22.519856 C -328.96646,-22.686146 -265.75439,-10.470646 -238.77013,3.8942335 -220.89144,13.411834 -199.89641,19.209304 -179.67621,18.036374 -166.90822,17.295734 -143.64435,4.8516835 -143.64435,4.8516835 z"
         style="fill:#aa0000;fill-opacity:1;stroke:none" />
      <path
         sodipodi:nodetypes="sssss"
         inkscape:connector-curvature="0"
         id="path3142"
         d="M -186.95499,-24.070186 C -190.37305,-26.500156 -191.98701,-37.079386 -188.20499,-38.891616 -185.7924,-40.047656 -182.15919,-38.637136 -180.70499,-36.391616 -178.87469,-33.565346 -174.56731,-24.293376 -177.84785,-23.534476 -181.45647,-22.699686 -183.76081,-21.799386 -186.95499,-24.070186 z"
         style="fill:#000000;fill-opacity:1;stroke:none" />
      <path
         style="fill:#000000;fill-opacity:1;stroke:none"
         d="M -200.95333,-23.062176 C -198.39142,-26.382506 -199.92942,-36.973046 -204.07533,-37.604886 -206.72006,-38.007946 -209.78477,-35.600176 -210.52172,-33.028416 -211.44928,-29.791536 -212.65794,-21.942476 -209.38311,-21.159296 -205.68782,-20.275566 -203.34743,-19.959306 -200.95333,-23.062176 z"
         id="path3144"
         inkscape:connector-curvature="0"
         sodipodi:nodetypes="sssss" />
      <path
         sodipodi:nodetypes="sccccccccssccccss"
         inkscape:connector-curvature="0"
         id="path3150"
         d="M -263.26633,-89.797422 C -265.50744,-98.064145 -272.08346,-106.17165 -278.9237,-109.4954 L -278.9237,-106.46494 C -286.76066,-110.89333 -295.90576,-116.83632 -308.97573,-116.819 L -308.47065,-114.29362 C -325.27288,-109.12261 -342.37518,-92.076435 -341.30061,-84.241583 L -338.77522,-82.978893 C -342.07404,-67.018989 -333.04576,-54.318448 -326.14832,-46.360863 L -324.12802,-49.896397 C -321.1096,-43.606986 -314.77354,-40.330676 -308.7232,-40.552486 -301.71933,-40.809246 -292.04579,-40.466186 -290.28791,-47.371015 -289.47412,-50.567521 -287.78338,-53.642808 -291.5506,-57.472541 -298.36584,-60.843823 -305.04718,-61.983375 -309.73335,-69.341834 -308.7338,-75.06504 -301.65118,-87.490241 -292.05568,-82.978893 L -292.81329,-86.261888 C -286.51846,-83.700148 -284.31929,-75.245646 -276.39832,-75.402749 -268.61549,-75.557112 -260.58441,-79.904689 -263.26633,-89.797422 z"
         style="fill:#ffffff;fill-opacity:1;stroke:none" />
      <path
         sodipodi:nodetypes="ssssssssssssccsssscscsccccccssc"
         inkscape:connector-curvature="0"
         id="path3922"
         d="M -334.05766,-9.5216565 C -329.54866,-4.4635265 -322.1307,-0.24417646 -317.12017,2.0095935 -307.68708,6.2526735 -296.26295,4.2936335 -286.77642,8.4158435 -276.31103,12.963404 -269.88362,17.722024 -258.74517,28.072094 -255.75961,30.846334 -267.10874,31.078544 -270.87017,29.509594 -281.00218,25.283394 -287.87304,16.419754 -298.21392,13.072094 -307.28958,10.134034 -315.56542,8.7318135 -323.21392,5.9158435 -326.78196,4.6021835 -330.16207,1.9096135 -334.57876,1.1422035 -335.85499,0.92046354 -336.52449,2.7511035 -336.43266,3.7908435 -336.00819,8.5968635 -327.01451,8.0652735 -327.68266,12.009594 -327.9764,13.743614 -330.06073,14.573084 -331.58891,15.384594 -333.60384,16.454574 -334.64872,16.685034 -335.52641,18.790844 -336.11058,20.192424 -335.69245,21.772924 -335.05766,23.134594 -338.43515,21.531894 -341.14353,20.126144 -342.80766,19.040844 -342.80766,19.040844 -344.16615,16.026904 -343.83891,14.509594 -343.3065,12.040974 -339.57699,10.954524 -339.27641,8.4470935 -338.97119,5.9009535 -343.13075,3.7820235 -342.30766,1.3533435 -341.31564,-1.5737765 -338.05671,-1.6801865 -337.08891,-4.6154065 -335.41346,-9.6968465 -341.55893,-12.089966 -340.80766,-17.834156 -334.96774,-21.788826 -336.13682,-11.854026 -334.05766,-9.5216565 z M -146.96392,-5.5841565 C -142.51911,-5.4781465 -138.55422,-3.5951465 -137.49517,-1.9279065 -136.38008,-0.17243646 -139.01573,3.5739935 -143.65142,4.8533435 z M -127.71392,8.9783435 C -127.97027,10.101894 -128.27813,11.142344 -128.65142,11.978344 -130.85442,16.365064 -132.28726,16.345024 -132.30767,18.603344 -139.30307,20.524804 -141.222,23.088464 -146.16744,30.164894 -149.7196,35.380874 -161.6206,40.744434 -160.18267,35.040844 -158.13834,26.931924 -153.37245,25.173884 -146.24517,19.665844 -140.88268,15.521664 -129.67584,9.9445135 -127.71392,8.9783435 z"
         style="fill:#550000;fill-opacity:1;stroke:none" />
      <path
         sodipodi:nodetypes="cccccccc"
         inkscape:connector-curvature="0"
         id="path3938"
         d="M -252.40719,172.5897 C -245.33973,170.76665 -238.59818,171.55077 -232.20414,175.11508 L -235.73968,178.14554 C -220.17273,182.964 -200.881,194.50928 -199.87926,200.87397 L -204.42495,202.89427 C -193.75343,212.9958 -191.14189,223.09732 -189.77773,233.19885 L -191.79804,233.70393 C -193.02994,238.4563 -193.74968,243.37938 -198.86911,246.83591"
         style="fill:none;stroke:#000000;stroke-width:1;stroke-linecap:round;stroke-linejoin:round;stroke-miterlimit:4;stroke-opacity:1;stroke-dasharray:none;stroke-dashoffset:0" />
      <path
         transform="matrix(-1,0,0,1,-15.526415,-145.89666)"
         d="M 166.42857,132.80861 C 166.42857,136.11246 163.83022,138.79075 160.625,138.79075 157.41978,138.79075 154.82143,136.11246 154.82143,132.80861 154.82143,129.50476 157.41978,126.82647 160.625,126.82647 163.83022,126.82647 166.42857,129.50476 166.42857,132.80861 z"
         sodipodi:ry="5.9821429"
         sodipodi:rx="5.8035712"
         sodipodi:cy="132.80861"
         sodipodi:cx="160.625"
         id="path3146"
         style="fill:#000000;fill-opacity:1;stroke:none"
         sodipodi:type="arc" />
    </g>
    <rect
       style="fill:none;stroke:none"
       id="rect3101"
       width="450"
       height="450"
       x="-453.04813"
       y="-148.0173"
       ry="0"
       inkscape:export-filename="/Users/msh801/github/GreenHomeGames/images/polar_bear.png"
       inkscape:export-xdpi="16"
       inkscape:export-ydpi="16" />
  </g>
</svg>
